<?xml version="1.0" encoding="utf-8"?>
<!-- Generator: Adobe Illustrator 24.1.0, SVG Export Plug-In . SVG Version: 6.00 Build 0)  -->
<svg version="1.1" id="Calque_1" xmlns="http://www.w3.org/2000/svg" xmlns:xlink="http://www.w3.org/1999/xlink" x="0px" y="0px"
	 viewBox="0 0 283.3 147.7" style="enable-background:new 0 0 283.3 147.7;" xml:space="preserve">
<style type="text/css">
	.st0{fill-rule:evenodd;clip-rule:evenodd;fill:#E6332A;}
	.st1{fill-rule:evenodd;clip-rule:evenodd;fill:#95C11F;}
	.st2{fill:#FFFFFF;}
	.st3{fill-rule:evenodd;clip-rule:evenodd;fill:#F6CA21;}
	.st4{fill:#009FE3;}
	.st5{fill:none;stroke:#FFFFFF;stroke-miterlimit:10;}
</style>
<path class="st0" d="M50.8,14.2c-8.2,0-14.9,6.6-14.9,14.7v34.5l25.2-24C70.8,30.3,64.2,14.2,50.8,14.2z M36,71.5l29.3-27.9
	C78.8,30.8,69.6,8.4,50.8,8.4C39.4,8.4,30,17.5,30,28.9v71.8h6V71.5z"/>
<path class="st1" d="M103.1,63.7c-0.6,3.1-5.3,2.6-5.3-0.5V41.9c0-7.6-7.9-12.1-14.4-9.7c-0.3,0-0.6,0.2-0.9,0.4c-1,0.5-2,1.1-2.9,2
	l-35.7,34l4.1,4.1l21.9-20.9l12.3-5l1.8,5.6c0.2,0.5,0.6,0.9,1.1,1.1c0.5,0.2,1.1,0.1,1.5-0.2l5.4-3.9v13.8c0,10.1,15,11.5,17,1.6
	c0.6-3.1,5.3-2.6,5.3,0.5v43.6h5.9V65.3C120.1,55.2,105.1,53.8,103.1,63.7z M86.5,49.2l-1.6-5.1c-0.1-0.4-0.5-0.8-0.9-1
	c-0.2-0.1-0.5-0.2-0.7-0.2s-0.4,0-0.6,0.1l-6,2.4l7.2-6.9c1.3-1.3,3.1-1.6,4.6-1.2l0.8,0.3c1.5,0.7,2.7,2.2,2.7,4.1v3.4L86.5,49.2z"
	/>
<path class="st2" d="M163,24.5c-0.2,0-0.3-0.1-0.5-0.2c-0.1-0.1-0.2-0.3-0.2-0.5v-18c0-0.2,0.1-0.3,0.2-0.4c0.1-0.1,0.3-0.2,0.5-0.2
	h1.5c0.2,0,0.3,0.1,0.4,0.2c0.1,0.1,0.2,0.3,0.2,0.4v16.3h9.2c0.2,0,0.4,0.1,0.5,0.2s0.2,0.3,0.2,0.5v1.1c0,0.2-0.1,0.3-0.2,0.5
	c-0.1,0.1-0.3,0.2-0.5,0.2H163V24.5z M183.6,24.5c-0.2,0-0.3-0.1-0.5-0.2c-0.1-0.1-0.2-0.3-0.2-0.5v-6.5L176.2,6c0,0,0-0.1,0-0.2
	s-0.1-0.1-0.1-0.2s0.1-0.3,0.2-0.4s0.2-0.2,0.4-0.2h1.4c0.3,0,0.6,0.2,0.7,0.5l5.4,8.9l5.4-8.9c0.2-0.3,0.5-0.5,0.7-0.5h1.4
	c0.2,0,0.3,0.1,0.4,0.2c0.1,0.1,0.2,0.2,0.2,0.4c0,0.1,0,0.2-0.1,0.4l-6.6,11.3v6.5c0,0.2-0.1,0.3-0.2,0.5c-0.1,0.1-0.3,0.2-0.5,0.2
	H183.6z M204.5,24.8c-2.5,0-4.3-0.7-5.6-2s-2-3.2-2-5.5c0-0.5,0-1.3,0-2.4c0-1.1,0-2,0-2.5c0.1-2.3,0.8-4.1,2.1-5.5
	c1.3-1.3,3.2-2,5.6-2c1.6,0,3,0.3,4.2,0.9c1.1,0.6,2,1.3,2.6,2.3c0.6,0.9,0.9,1.9,1,3v0.1c0,0.1-0.1,0.3-0.2,0.4
	c-0.1,0.1-0.2,0.1-0.4,0.1h-1.5c-0.4,0-0.6-0.2-0.7-0.6c-0.3-1.4-0.9-2.3-1.7-2.9s-1.9-0.9-3.3-0.9c-3.2,0-4.8,1.8-4.9,5.3
	c0,0.5,0,1.3,0,2.3s0,1.8,0,2.3c0.1,3.5,1.7,5.3,4.9,5.3c1.4,0,2.4-0.3,3.3-0.8c0.8-0.6,1.4-1.5,1.7-2.9c0.1-0.2,0.1-0.4,0.2-0.5
	c0.1-0.1,0.3-0.1,0.4-0.1h1.5c0.2,0,0.3,0.1,0.4,0.2c0.1,0.1,0.2,0.2,0.2,0.4c-0.1,1.1-0.4,2.1-1,3s-1.5,1.7-2.6,2.3
	C207.5,24.5,206.1,24.8,204.5,24.8z M219.3,24.5c-0.2,0-0.3-0.1-0.5-0.2c-0.1-0.1-0.2-0.3-0.2-0.5v-18c0-0.2,0.1-0.4,0.2-0.5
	c0.1-0.1,0.3-0.2,0.5-0.2h11.4c0.2,0,0.3,0.1,0.4,0.2c0.1,0.1,0.2,0.3,0.2,0.5v1c0,0.2-0.1,0.3-0.2,0.5c-0.1,0.1-0.3,0.2-0.5,0.2
	h-9.4v6h8.8c0.2,0,0.3,0.1,0.4,0.2c0.1,0.1,0.2,0.3,0.2,0.5v1c0,0.2-0.1,0.3-0.2,0.5c-0.1,0.1-0.3,0.2-0.4,0.2h-8.8v6.3h9.6
	c0.2,0,0.4,0.1,0.5,0.2s0.2,0.3,0.2,0.5V24c0,0.2-0.1,0.3-0.2,0.5c-0.1,0.1-0.3,0.2-0.4,0.2h-11.6V24.5z M223.9,3.8
	c-0.3,0-0.4-0.1-0.4-0.4c0-0.1,0-0.3,0.1-0.4l2.1-2.5c0.2-0.2,0.3-0.3,0.4-0.4c0.1-0.1,0.3-0.1,0.6-0.1h2c0.2,0,0.3,0.1,0.4,0.2
	c0.1,0.1,0.1,0.2,0.1,0.4c0,0.1,0,0.2-0.1,0.3l-3.2,2.6c-0.1,0.1-0.3,0.2-0.4,0.2c-0.1,0-0.3,0.1-0.5,0.1
	C225,3.8,223.9,3.8,223.9,3.8z M238.8,24.5c-0.2,0-0.3-0.1-0.5-0.2c-0.1-0.1-0.2-0.3-0.2-0.5v-18c0-0.2,0.1-0.4,0.2-0.5
	c0.1-0.1,0.3-0.2,0.5-0.2h11.4c0.2,0,0.3,0.1,0.4,0.2c0.1,0.1,0.2,0.3,0.2,0.5v1c0,0.2-0.1,0.3-0.2,0.5c-0.1,0.1-0.3,0.2-0.5,0.2
	h-9.4v6h8.8c0.2,0,0.3,0.1,0.4,0.2c0.1,0.1,0.2,0.3,0.2,0.5v1c0,0.2-0.1,0.3-0.2,0.5c-0.1,0.1-0.3,0.2-0.4,0.2h-8.8v6.3h9.6
	c0.2,0,0.4,0.1,0.5,0.2s0.2,0.3,0.2,0.5V24c0,0.2-0.1,0.3-0.2,0.5c-0.1,0.1-0.3,0.2-0.4,0.2h-11.6V24.5z M163,52.1
	c-0.2,0-0.3-0.1-0.5-0.2c-0.1-0.1-0.2-0.3-0.2-0.5v-18c0-0.2,0.1-0.4,0.2-0.5c0.1-0.1,0.3-0.2,0.5-0.2h7c2.1,0,3.7,0.5,4.9,1.5
	s1.8,2.5,1.8,4.4s-0.6,3.4-1.8,4.4s-2.8,1.5-4.9,1.5h-4.9v6.9c0,0.2-0.1,0.3-0.2,0.5c-0.1,0.1-0.3,0.2-0.5,0.2
	C164.4,52.1,163,52.1,163,52.1z M169.9,42.2c1.3,0,2.4-0.3,3-0.9c0.7-0.6,1-1.5,1-2.6c0-1.2-0.3-2-1-2.6s-1.7-0.9-3.1-0.9H165v7.1
	L169.9,42.2L169.9,42.2z M183.5,52.1c-0.2,0-0.3-0.1-0.5-0.2c-0.1-0.1-0.2-0.3-0.2-0.5v-18c0-0.2,0.1-0.3,0.2-0.4
	c0.1-0.1,0.3-0.2,0.5-0.2h1.5c0.2,0,0.3,0.1,0.4,0.2c0.1,0.1,0.2,0.3,0.2,0.4v18c0,0.2-0.1,0.3-0.2,0.5c-0.1,0.1-0.3,0.2-0.4,0.2
	H183.5z M193.8,52.1c-0.2,0-0.3-0.1-0.5-0.2c-0.1-0.1-0.2-0.3-0.2-0.5v-18c0-0.2,0.1-0.4,0.2-0.5c0.1-0.1,0.3-0.2,0.5-0.2h11.4
	c0.2,0,0.3,0.1,0.4,0.2c0.1,0.1,0.2,0.3,0.2,0.5v1c0,0.2-0.1,0.3-0.2,0.5c-0.1,0.1-0.3,0.2-0.5,0.2h-9.4v6h8.8
	c0.2,0,0.3,0.1,0.4,0.2c0.1,0.1,0.2,0.3,0.2,0.5v1c0,0.2-0.1,0.3-0.2,0.5c-0.1,0.1-0.3,0.2-0.4,0.2h-8.8v6.3h9.6
	c0.2,0,0.4,0.1,0.5,0.2c0.1,0.1,0.2,0.3,0.2,0.5v1.1c0,0.2-0.1,0.3-0.2,0.5c-0.1,0.1-0.3,0.2-0.4,0.2h-11.6V52.1z M213.3,52.1
	c-0.2,0-0.3-0.1-0.5-0.2c-0.1-0.1-0.2-0.3-0.2-0.5v-18c0-0.2,0.1-0.4,0.2-0.5c0.1-0.1,0.3-0.2,0.5-0.2h6.7c2.1,0,3.8,0.5,5,1.5
	s1.8,2.4,1.8,4.3c0,1.4-0.3,2.5-1,3.4s-1.6,1.5-2.9,1.9l4.2,7.3c0.1,0.1,0.1,0.2,0.1,0.3s-0.1,0.3-0.2,0.4c-0.1,0.1-0.2,0.2-0.4,0.2
	h-1.3c-0.3,0-0.5-0.1-0.7-0.2c-0.1-0.1-0.3-0.3-0.4-0.6l-4-7h-4.8v7.1c0,0.2-0.1,0.3-0.2,0.5c-0.1,0.1-0.3,0.2-0.5,0.2L213.3,52.1
	L213.3,52.1z M219.9,42c2.7,0,4.1-1.1,4.1-3.4s-1.4-3.4-4.1-3.4h-4.6V42H219.9z M234.1,52.1c-0.2,0-0.3-0.1-0.5-0.2
	c-0.1-0.1-0.2-0.3-0.2-0.5v-18c0-0.2,0.1-0.4,0.2-0.5c0.1-0.1,0.3-0.2,0.5-0.2h6.7c2.1,0,3.8,0.5,5,1.5s1.8,2.4,1.8,4.3
	c0,1.4-0.4,2.5-1,3.4c-0.7,0.9-1.6,1.5-2.9,1.9l4.2,7.3c0.1,0.1,0.1,0.2,0.1,0.3s-0.1,0.3-0.2,0.4c-0.1,0.1-0.2,0.2-0.4,0.2h-1.3
	c-0.3,0-0.5-0.1-0.7-0.2c-0.1-0.1-0.3-0.3-0.4-0.6l-4-7h-4.8v7.1c0,0.2-0.1,0.3-0.2,0.5c-0.1,0.1-0.3,0.2-0.5,0.2L234.1,52.1
	L234.1,52.1z M240.8,42c2.7,0,4.1-1.1,4.1-3.4s-1.4-3.4-4.1-3.4h-4.6V42H240.8z M255,52.1c-0.2,0-0.3-0.1-0.5-0.2
	c-0.1-0.1-0.2-0.3-0.2-0.5v-18c0-0.2,0.1-0.4,0.2-0.5c0.1-0.1,0.3-0.2,0.5-0.2h11.4c0.2,0,0.3,0.1,0.4,0.2c0.1,0.1,0.2,0.3,0.2,0.5
	v1c0,0.2-0.1,0.3-0.2,0.5c-0.1,0.1-0.3,0.2-0.5,0.2H257v6h8.8c0.2,0,0.3,0.1,0.4,0.2c0.1,0.1,0.2,0.3,0.2,0.5v1
	c0,0.2-0.1,0.3-0.2,0.5c-0.1,0.1-0.3,0.2-0.4,0.2H257v6.3h9.6c0.2,0,0.4,0.1,0.5,0.2c0.1,0.1,0.2,0.3,0.2,0.5v1.1
	c0,0.2-0.1,0.3-0.2,0.5c-0.1,0.1-0.3,0.2-0.4,0.2H255V52.1z M163,79.7c-0.2,0-0.3-0.1-0.5-0.2c-0.1-0.1-0.2-0.3-0.2-0.5V61
	c0-0.2,0.1-0.4,0.2-0.5c0.1-0.1,0.3-0.2,0.5-0.2h1.4c0.3,0,0.5,0.1,0.7,0.4L171,72l5.9-11.1c0-0.1,0.1-0.2,0.2-0.3
	c0.1-0.1,0.3-0.1,0.5-0.1h1.4c0.2,0,0.4,0.1,0.5,0.2c0.1,0.1,0.2,0.3,0.2,0.5v18c0,0.2-0.1,0.3-0.2,0.5c-0.1,0.1-0.3,0.2-0.5,0.2
	h-1.4c-0.2,0-0.3-0.1-0.5-0.2c-0.1-0.1-0.2-0.3-0.2-0.5V65.5l-4.6,9c-0.2,0.4-0.5,0.6-0.9,0.6h-0.9c-0.4,0-0.7-0.2-0.9-0.6l-4.6-9
	v13.6c0,0.2-0.1,0.3-0.2,0.5c-0.1,0.1-0.3,0.2-0.4,0.2L163,79.7L163,79.7z M187.7,79.7c-0.2,0-0.3-0.1-0.5-0.2
	c-0.1-0.1-0.2-0.3-0.2-0.5V61c0-0.2,0.1-0.4,0.2-0.5c0.1-0.1,0.3-0.2,0.5-0.2h11.4c0.2,0,0.3,0.1,0.4,0.2c0.1,0.1,0.2,0.3,0.2,0.5v1
	c0,0.2-0.1,0.3-0.2,0.5c-0.1,0.1-0.3,0.2-0.5,0.2h-9.4v6h8.8c0.2,0,0.3,0.1,0.4,0.2c0.1,0.1,0.2,0.3,0.2,0.5v1
	c0,0.2-0.1,0.3-0.2,0.5c-0.1,0.1-0.3,0.2-0.4,0.2h-8.8v6.3h9.6c0.2,0,0.4,0.1,0.5,0.2s0.2,0.3,0.2,0.5v1.1c0,0.2-0.1,0.3-0.2,0.5
	c-0.1,0.1-0.3,0.2-0.4,0.2h-11.6V79.7z M207.2,79.7c-0.2,0-0.3-0.1-0.5-0.2c-0.1-0.1-0.2-0.3-0.2-0.5V61c0-0.2,0.1-0.4,0.2-0.5
	c0.1-0.1,0.3-0.2,0.5-0.2h1.3c0.3,0,0.6,0.1,0.7,0.4l9.2,14.1V61c0-0.2,0.1-0.4,0.2-0.5c0.1-0.1,0.3-0.2,0.5-0.2h1.3
	c0.2,0,0.4,0.1,0.5,0.2c0.1,0.1,0.2,0.3,0.2,0.5v18c0,0.2-0.1,0.3-0.2,0.5c-0.1,0.1-0.3,0.2-0.4,0.2H219c-0.3,0-0.5-0.1-0.7-0.4
	l-9.1-13.9v13.7c0,0.2-0.1,0.3-0.2,0.5c-0.1,0.1-0.3,0.2-0.5,0.2L207.2,79.7L207.2,79.7z M229.1,79.7c-0.2,0-0.3-0.1-0.5-0.2
	c-0.1-0.1-0.2-0.3-0.2-0.5V61c0-0.2,0.1-0.4,0.2-0.5c0.1-0.1,0.3-0.2,0.5-0.2h6.3c2.8,0,4.8,0.6,6,1.9c1.2,1.2,1.9,3.1,1.9,5.6
	c0,0.5,0,1.3,0,2.2s0,1.6,0,2.2c-0.1,1.7-0.4,3.2-0.9,4.3c-0.5,1.1-1.3,1.9-2.5,2.4c-1.1,0.5-2.6,0.8-4.5,0.8
	C235.4,79.7,229.1,79.7,229.1,79.7z M235.4,77.3c1.3,0,2.3-0.2,3-0.5c0.8-0.3,1.3-0.9,1.6-1.7c0.4-0.8,0.5-1.8,0.6-3.1
	c0-1.1,0.1-1.8,0.1-2.1c0-0.3,0-1-0.1-2c0-1.8-0.5-3.1-1.3-4c-0.8-0.8-2.2-1.3-4.1-1.3h-4.1v14.6L235.4,77.3L235.4,77.3z
	 M250.9,79.7c-0.2,0-0.3-0.1-0.5-0.2c-0.1-0.1-0.2-0.3-0.2-0.5V61c0-0.2,0.1-0.4,0.2-0.5c0.1-0.1,0.3-0.2,0.5-0.2h11.4
	c0.2,0,0.3,0.1,0.4,0.2c0.1,0.1,0.2,0.3,0.2,0.5v1c0,0.2-0.1,0.3-0.2,0.5c-0.1,0.1-0.3,0.2-0.5,0.2h-9.4v6h8.8
	c0.2,0,0.3,0.1,0.4,0.2s0.2,0.3,0.2,0.5v1c0,0.2-0.1,0.3-0.2,0.5c-0.1,0.1-0.3,0.2-0.4,0.2h-8.8v6.3h9.6c0.2,0,0.4,0.1,0.5,0.2
	s0.2,0.3,0.2,0.5v1.1c0,0.2-0.1,0.3-0.2,0.5c-0.1,0.1-0.3,0.2-0.4,0.2h-11.6V79.7z M276,80c-1.5,0-2.9-0.2-4-0.7s-2-1.1-2.5-1.9
	c-0.6-0.8-0.9-1.6-0.9-2.5c0-0.1,0.1-0.3,0.2-0.4s0.3-0.2,0.4-0.2h1.4c0.3,0,0.6,0.2,0.7,0.6c0.2,0.8,0.6,1.4,1.4,2s1.9,0.8,3.3,0.8
	c1.5,0,2.7-0.3,3.4-0.8c0.8-0.6,1.2-1.3,1.2-2.3c0-0.6-0.2-1.1-0.6-1.5s-0.9-0.7-1.7-1c-0.7-0.3-1.8-0.7-3.3-1.1
	c-1.4-0.4-2.6-0.8-3.4-1.3s-1.5-1-1.9-1.7s-0.6-1.5-0.6-2.6c0-1,0.3-1.9,0.8-2.7c0.6-0.8,1.3-1.4,2.3-1.8c1-0.5,2.2-0.7,3.6-0.7
	s2.7,0.3,3.7,0.8s1.8,1.1,2.3,1.9c0.5,0.8,0.8,1.5,0.9,2.3c0,0.1-0.1,0.3-0.2,0.4s-0.2,0.2-0.4,0.2h-1.5c-0.4,0-0.6-0.2-0.7-0.5
	c-0.1-0.8-0.5-1.4-1.3-1.9s-1.7-0.8-2.8-0.8c-1.3,0-2.2,0.2-3,0.7c-0.7,0.5-1.1,1.2-1.1,2.1c0,0.6,0.2,1.1,0.5,1.5s0.9,0.8,1.6,1.1
	c0.7,0.3,1.7,0.6,3.1,1c1.6,0.4,2.8,0.9,3.7,1.3c0.9,0.4,1.6,1,2,1.7s0.7,1.5,0.7,2.5c0,1.7-0.7,3.1-2,4C280,79.5,278.2,80,276,80z"
	/>
<g>
	<path class="st2" d="M162.7,108.5c-0.2,0-0.3-0.1-0.5-0.2c-0.1-0.1-0.2-0.3-0.2-0.5v-18c0-0.2,0.1-0.4,0.2-0.5
		c0.1-0.1,0.3-0.2,0.5-0.2H174c0.2,0,0.4,0.1,0.5,0.2s0.2,0.3,0.2,0.5V91c0,0.2-0.1,0.3-0.2,0.5c-0.1,0.1-0.3,0.2-0.5,0.2h-9.2V98
		h8.7c0.2,0,0.4,0.1,0.5,0.2s0.2,0.3,0.2,0.5v1.1c0,0.2-0.1,0.3-0.2,0.5c-0.1,0.1-0.3,0.2-0.5,0.2h-8.7v7.5c0,0.2-0.1,0.3-0.2,0.5
		c-0.1,0.1-0.3,0.2-0.5,0.2h-1.4V108.5z"/>
	<path class="st2" d="M195.4,107.7l-4.2-7.3c1.3-0.3,2.2-1,2.9-1.9s1-2.1,1-3.4c0-1.9-0.6-3.3-1.8-4.3s-2.9-1.5-5-1.5h-6.7
		c-0.2,0-0.3,0.1-0.5,0.2c-0.1,0.1-0.2,0.3-0.2,0.5v18c0,0.2,0.1,0.3,0.2,0.5c0.1,0.1,0.3,0.2,0.5,0.2h1.4c0.2,0,0.3-0.1,0.5-0.2
		c0.1-0.1,0.2-0.3,0.2-0.5v-7.1h4.8l4,7c0.1,0.2,0.3,0.4,0.4,0.6c0.2,0.1,0.4,0.2,0.7,0.2h1.3c0.1,0,0.3-0.1,0.4-0.2
		c0.1-0.1,0.2-0.2,0.2-0.4C195.5,107.9,195.4,107.8,195.4,107.7z M188.2,98.4h-4.6v-6.9h4.6c2.7,0,4.1,1.1,4.1,3.4
		C192.3,97.3,190.9,98.4,188.2,98.4z"/>
	<path class="st2" d="M217.3,107.7l-6.8-17.9c-0.1-0.4-0.4-0.6-0.9-0.6h-1.9c-0.4,0-0.7,0.2-0.9,0.6l-6.8,17.9c0,0.1,0,0.2,0,0.3
		c0,0.1,0.1,0.3,0.2,0.4c0.1,0.1,0.2,0.2,0.4,0.2h1.4c0.2,0,0.3,0,0.4-0.1c0.1-0.1,0.2-0.2,0.2-0.3l1.5-3.9h9.1l1.5,3.9
		c0,0.1,0.1,0.2,0.2,0.3c0.1,0.1,0.3,0.1,0.5,0.1h1.4c0.1,0,0.3-0.1,0.4-0.2s0.2-0.2,0.2-0.4L217.3,107.7z M204.9,101.8l3.7-9.8
		l3.7,9.8H204.9z"/>
	<path class="st2" d="M223.7,108.5c-0.2,0-0.3-0.1-0.5-0.2c-0.1-0.1-0.2-0.3-0.2-0.5v-18c0-0.2,0.1-0.4,0.2-0.5
		c0.1-0.1,0.3-0.2,0.5-0.2h1.3c0.3,0,0.6,0.1,0.7,0.4l9.2,14.1V89.9c0-0.2,0.1-0.4,0.2-0.5c0.1-0.1,0.3-0.2,0.5-0.2h1.3
		c0.2,0,0.4,0.1,0.5,0.2s0.2,0.3,0.2,0.5v18c0,0.2-0.1,0.3-0.2,0.5c-0.1,0.1-0.3,0.2-0.4,0.2h-1.3c-0.3,0-0.5-0.1-0.7-0.4l-9.1-13.9
		V108c0,0.2-0.1,0.3-0.2,0.5c-0.1,0.1-0.3,0.2-0.5,0.2h-1.5V108.5z"/>
	<path class="st2" d="M251.9,108.8c-2.5,0-4.3-0.7-5.6-2s-2-3.2-2-5.5c0-0.5,0-1.3,0-2.4s0-2,0-2.5c0.1-2.3,0.8-4.1,2.1-5.5
		c1.3-1.3,3.2-2,5.6-2c1.6,0,3,0.3,4.2,0.9c1.1,0.6,2,1.3,2.6,2.3c0.6,0.9,0.9,1.9,1,3v0.1c0,0.1-0.1,0.3-0.2,0.4s-0.2,0.1-0.4,0.1
		h-1.5c-0.4,0-0.6-0.2-0.7-0.6c-0.3-1.4-0.9-2.3-1.7-2.9s-1.9-0.9-3.3-0.9c-3.2,0-4.8,1.8-4.9,5.3c0,0.5,0,1.3,0,2.3s0,1.8,0,2.3
		c0.1,3.5,1.7,5.3,4.9,5.3c1.4,0,2.4-0.3,3.3-0.8c0.8-0.6,1.4-1.5,1.7-2.9c0.1-0.2,0.1-0.4,0.2-0.5s0.3-0.1,0.4-0.1h1.5
		c0.2,0,0.3,0.1,0.4,0.2s0.2,0.2,0.2,0.4c-0.1,1.1-0.4,2.1-1,3s-1.5,1.7-2.6,2.3C255,108.5,253.6,108.8,251.9,108.8z"/>
	<path class="st2" d="M266.8,108.5c-0.2,0-0.3-0.1-0.5-0.2c-0.1-0.1-0.2-0.3-0.2-0.5v-18c0-0.2,0.1-0.4,0.2-0.5s0.3-0.2,0.5-0.2
		h11.4c0.2,0,0.3,0.1,0.4,0.2s0.2,0.3,0.2,0.5v1c0,0.2-0.1,0.3-0.2,0.5c-0.1,0.1-0.3,0.2-0.5,0.2h-9.4v6h8.8c0.2,0,0.3,0.1,0.4,0.2
		s0.2,0.3,0.2,0.5v1c0,0.2-0.1,0.3-0.2,0.5c-0.1,0.1-0.3,0.2-0.4,0.2h-8.8v6.3h9.6c0.2,0,0.4,0.1,0.5,0.2s0.2,0.3,0.2,0.5v1.1
		c0,0.2-0.1,0.3-0.2,0.5c-0.1,0.1-0.3,0.2-0.4,0.2h-11.6V108.5z"/>
</g>
<path class="st3" d="M149.4,11.1c-10.7,0-19.3,8.4-19.3,18.7v31.5h19.3V67h-19.3v41.7h-5.9v-79c0-13.5,11.3-24.5,25.2-24.5V11.1z"/>
<path class="st4" d="M96.1,98.4c-1.7-1.2-3.3-2.3-5.1-2.9c-4.9-1.9-20.1-4.2-32.9,1.5c-15.3,6.8-31,6.3-32.4,6.2v-0.1
	c-10.7,0-19.3-8.4-19.3-18.7v-76H0.5v76c0,13.5,11.3,24.5,25.2,24.5l0,0c0.4,0,1,0,1.8,0c5.3,0,19.1-0.7,32.9-6.8
	c11.5-5.1,25-2.8,28.6-1.4c1.1,0.4,2.4,1.4,3.9,2.3c7.1,4.5,8.2,2.1,15,2.1C102.3,104.3,99.4,100.6,96.1,98.4z"/>
<g>
	<path class="st2" d="M0,133.9h1.8L5.9,145l0,0l4.3-11.1H12l-5.3,13.5H5.1L0,133.9z"/>
	<path class="st2" d="M16.4,133.9h8.5v1.5H18v4.2h6.4v1.5H18v4.8h7.2v1.5h-8.8C16.4,147.4,16.4,133.9,16.4,133.9z"/>
	<path class="st2" d="M33.8,141.6l-5-7.7h2l3.8,6.1l3.9-6.1h1.9l-5,7.7v5.8h-1.6C33.8,147.4,33.8,141.6,33.8,141.6z"/>
	<path class="st2" d="M44.8,133.9h2l7.8,11.2l0,0v-11.2h1.6v13.5h-2l-7.8-11.2l0,0v11.2h-1.6V133.9z"/>
	<path class="st2" d="M62.6,133.9H71v1.5h-6.9v4.2h6.4v1.5h-6.4v4.8h7.2v1.5h-8.8v-13.5H62.6z"/>
	<path class="st2" d="M83.2,136.3c-0.3-0.4-0.6-0.7-1.1-0.9c-0.4-0.2-0.9-0.3-1.4-0.3c-0.4,0-0.7,0-1,0.1s-0.6,0.2-0.9,0.4
		s-0.5,0.4-0.7,0.7s-0.2,0.6-0.2,1c0,0.3,0,0.6,0.1,0.8s0.2,0.4,0.5,0.6c0.2,0.2,0.5,0.4,0.9,0.5c0.4,0.2,0.8,0.3,1.3,0.5
		s1,0.3,1.5,0.5s0.9,0.4,1.3,0.7s0.7,0.7,0.9,1.1c0.2,0.4,0.3,1,0.3,1.6c0,0.7-0.1,1.3-0.4,1.7c-0.3,0.5-0.6,0.9-1.1,1.2
		c-0.4,0.3-0.9,0.6-1.5,0.7c-0.6,0.2-1.2,0.2-1.8,0.2c-0.4,0-0.8,0-1.2-0.1c-0.4-0.1-0.8-0.2-1.1-0.3c-0.4-0.1-0.7-0.3-1-0.6
		c-0.3-0.2-0.6-0.5-0.8-0.9l1.4-1.1c0.3,0.5,0.7,0.9,1.2,1.1c0.5,0.3,1.1,0.4,1.7,0.4c0.3,0,0.7-0.1,1-0.2c0.3-0.1,0.7-0.2,0.9-0.4
		c0.3-0.2,0.5-0.4,0.7-0.7s0.3-0.6,0.3-1s-0.1-0.8-0.2-1c-0.1-0.3-0.4-0.5-0.6-0.7s-0.7-0.4-1.1-0.5c-0.4-0.2-1-0.3-1.6-0.5
		c-0.5-0.2-0.9-0.3-1.3-0.5s-0.8-0.4-1.1-0.7s-0.5-0.6-0.7-1s-0.3-0.9-0.3-1.4c0-0.6,0.1-1.2,0.4-1.7s0.6-0.9,1-1.2s0.9-0.6,1.5-0.7
		c0.5-0.2,1.1-0.2,1.7-0.2c0.8,0,1.5,0.1,2.1,0.4s1.2,0.6,1.7,1.2L83.2,136.3z"/>
	<path class="st2" d="M97.7,142.1h4.7v1.4h-4.7V142.1z"/>
	<path class="st2" d="M116,133.9h1.6v5.7h7.2v-5.7h1.6v13.5h-1.6v-6.3h-7.2v6.3H116V133.9z"/>
	<path class="st2" d="M137,133.9h1.5l5.7,13.5h-1.9l-1.4-3.3h-6.7l-1.4,3.3H131L137,133.9z M137.8,136L137.8,136l-2.8,6.6h5.5
		L137.8,136z"/>
	<path class="st2" d="M159.1,142.3c0,0.7-0.1,1.4-0.3,2.1c-0.2,0.7-0.5,1.2-0.9,1.7s-0.9,0.9-1.6,1.2c-0.6,0.3-1.4,0.4-2.4,0.4
		c-0.9,0-1.7-0.1-2.4-0.4c-0.6-0.3-1.2-0.7-1.6-1.2c-0.4-0.5-0.7-1.1-0.9-1.7c-0.2-0.7-0.3-1.4-0.3-2.1V134h1.6v8.1
		c0,0.5,0.1,1.1,0.2,1.6c0.1,0.5,0.3,1,0.6,1.3c0.3,0.4,0.6,0.7,1.1,0.9c0.4,0.2,1,0.4,1.7,0.4s1.2-0.1,1.7-0.4
		c0.4-0.2,0.8-0.5,1.1-0.9s0.5-0.8,0.6-1.3s0.2-1,0.2-1.6V134h1.6L159.1,142.3L159.1,142.3z"/>
	<path class="st2" d="M174.3,135.4h-4.4v12h-1.6v-12h-4.4v-1.5h10.5v1.5H174.3z"/>
	<path class="st2" d="M179.2,133.9h8.5v1.5h-6.9v4.2h6.4v1.5h-6.4v4.8h7.2v1.5h-8.8V133.9z"/>
	<path class="st2" d="M199.8,136.3c-0.3-0.4-0.6-0.7-1.1-0.9c-0.4-0.2-0.9-0.3-1.4-0.3c-0.4,0-0.7,0-1,0.1s-0.6,0.2-0.9,0.4
		s-0.5,0.4-0.7,0.7s-0.2,0.6-0.2,1c0,0.3,0,0.6,0.1,0.8s0.2,0.4,0.5,0.6c0.2,0.2,0.5,0.4,0.9,0.5c0.4,0.2,0.8,0.3,1.3,0.5
		s1,0.3,1.5,0.5s0.9,0.4,1.3,0.7c0.4,0.3,0.7,0.7,0.9,1.1s0.3,1,0.3,1.6c0,0.7-0.1,1.3-0.4,1.7c-0.3,0.5-0.6,0.9-1.1,1.2
		c-0.4,0.3-0.9,0.6-1.5,0.7s-1.2,0.2-1.8,0.2c-0.4,0-0.8,0-1.2-0.1s-0.8-0.2-1.1-0.3c-0.4-0.1-0.7-0.3-1-0.6s-0.6-0.5-0.8-0.9
		l1.4-1.1c0.3,0.5,0.7,0.9,1.2,1.1s1.1,0.4,1.7,0.4c0.3,0,0.7-0.1,1-0.2c0.3-0.1,0.7-0.2,0.9-0.4c0.3-0.2,0.5-0.4,0.7-0.7
		s0.3-0.6,0.3-1s-0.1-0.8-0.2-1c-0.1-0.3-0.4-0.5-0.6-0.7c-0.3-0.2-0.7-0.4-1.1-0.5c-0.4-0.2-1-0.3-1.6-0.5
		c-0.5-0.2-0.9-0.3-1.3-0.5s-0.8-0.4-1.1-0.7s-0.5-0.6-0.7-1s-0.3-0.9-0.3-1.4c0-0.6,0.1-1.2,0.4-1.7c0.3-0.5,0.6-0.9,1-1.2
		s0.9-0.6,1.5-0.7c0.5-0.2,1.1-0.2,1.7-0.2c0.8,0,1.5,0.1,2.1,0.4s1.2,0.6,1.7,1.2L199.8,136.3z"/>
	<path class="st2" d="M206.1,142.1h4.7v1.4h-4.7V142.1z"/>
	<path class="st2" d="M220.5,133.9h1.5l5.7,13.5h-1.9l-1.4-3.3h-6.7l-1.4,3.3h-1.8L220.5,133.9z M221.3,136L221.3,136l-2.8,6.6h5.5
		L221.3,136z"/>
	<path class="st2" d="M232.5,133.9h1.6v12h6.2v1.5h-7.8V133.9z"/>
	<path class="st2" d="M244.9,133.9h4c0.6,0,1.2,0.1,1.8,0.2c0.6,0.1,1.1,0.3,1.5,0.6s0.8,0.7,1,1.1s0.4,1.1,0.4,1.8
		s-0.1,1.3-0.4,1.8c-0.3,0.5-0.6,0.9-1.1,1.1c-0.4,0.3-0.9,0.5-1.4,0.6s-1,0.2-1.5,0.2h-2.7v6h-1.6V133.9z M246.5,139.9h2.7
		c0.8,0,1.4-0.2,1.9-0.5c0.5-0.4,0.8-0.9,0.8-1.7s-0.2-1.3-0.8-1.7c-0.5-0.4-1.1-0.5-1.9-0.5h-2.7V139.9z"/>
	<path class="st2" d="M259.1,133.9h8.5v1.5h-6.9v4.2h6.4v1.5h-6.4v4.8h7.2v1.5h-8.8L259.1,133.9L259.1,133.9z"/>
	<path class="st2" d="M279.7,136.3c-0.3-0.4-0.6-0.7-1.1-0.9c-0.4-0.2-0.9-0.3-1.4-0.3c-0.4,0-0.7,0-1,0.1s-0.6,0.2-0.9,0.4
		s-0.5,0.4-0.7,0.7s-0.2,0.6-0.2,1c0,0.3,0,0.6,0.1,0.8s0.2,0.4,0.5,0.6c0.2,0.2,0.5,0.4,0.9,0.5c0.4,0.2,0.8,0.3,1.3,0.5
		s1,0.3,1.5,0.5s0.9,0.4,1.3,0.7s0.7,0.7,0.9,1.1s0.3,1,0.3,1.6c0,0.7-0.1,1.3-0.4,1.7c-0.3,0.5-0.6,0.9-1.1,1.2
		c-0.4,0.3-0.9,0.6-1.5,0.7s-1.2,0.2-1.8,0.2c-0.4,0-0.8,0-1.2-0.1c-0.4-0.1-0.8-0.2-1.1-0.3c-0.4-0.1-0.7-0.3-1-0.6
		s-0.6-0.5-0.8-0.9l1.4-1.1c0.3,0.5,0.7,0.9,1.2,1.1s1.1,0.4,1.7,0.4c0.3,0,0.7-0.1,1-0.2c0.3-0.1,0.7-0.2,0.9-0.4
		c0.3-0.2,0.5-0.4,0.7-0.7s0.3-0.6,0.3-1s-0.1-0.8-0.2-1c-0.1-0.3-0.4-0.5-0.6-0.7c-0.3-0.2-0.7-0.4-1.1-0.5c-0.4-0.2-1-0.3-1.6-0.5
		c-0.5-0.2-0.9-0.3-1.3-0.5s-0.8-0.4-1.1-0.7s-0.5-0.6-0.7-1s-0.3-0.9-0.3-1.4c0-0.6,0.1-1.2,0.4-1.7s0.6-0.9,1-1.2s0.9-0.6,1.5-0.7
		c0.5-0.2,1.1-0.2,1.7-0.2c0.8,0,1.5,0.1,2.1,0.4s1.2,0.6,1.7,1.2L279.7,136.3z"/>
</g>
<line class="st5" x1="0.8" y1="121.1" x2="282.3" y2="121.1"/>
</svg>
