<?xml version="1.0" encoding="UTF-8" standalone="no"?>
<!-- Created with Inkscape (http://www.inkscape.org/) -->

<svg
   id="svg2"
   version="1.1"
   inkscape:version="1.1 (c68e22c387, 2021-05-23)"
   xml:space="preserve"
   width="165.83"
   height="60"
   viewBox="0 0 165.83 60.000006"
   sodipodi:docname="pierre-mendes-france-veynes.svg"
   xmlns:inkscape="http://www.inkscape.org/namespaces/inkscape"
   xmlns:sodipodi="http://sodipodi.sourceforge.net/DTD/sodipodi-0.dtd"
   xmlns="http://www.w3.org/2000/svg"
   xmlns:svg="http://www.w3.org/2000/svg"
   xmlns:rdf="http://www.w3.org/1999/02/22-rdf-syntax-ns#"
   xmlns:cc="http://creativecommons.org/ns#"
   xmlns:dc="http://purl.org/dc/elements/1.1/"><metadata
     id="metadata8"><rdf:RDF><cc:Work
         rdf:about=""><dc:format>image/svg+xml</dc:format><dc:type
           rdf:resource="http://purl.org/dc/dcmitype/StillImage" /></cc:Work></rdf:RDF></metadata><defs
     id="defs6" /><sodipodi:namedview
     pagecolor="#ffffff"
     bordercolor="#666666"
     borderopacity="1"
     objecttolerance="10"
     gridtolerance="10"
     guidetolerance="10"
     inkscape:pageopacity="0"
     inkscape:pageshadow="2"
     inkscape:window-width="1920"
     inkscape:window-height="1017"
     id="namedview4"
     showgrid="false"
     fit-margin-left="5"
     fit-margin-bottom="5"
     fit-margin-top="5"
     fit-margin-right="5"
     inkscape:zoom="3.1397634"
     inkscape:cx="30.097809"
     inkscape:cy="104.62572"
     inkscape:window-x="-8"
     inkscape:window-y="-8"
     inkscape:window-maximized="1"
     inkscape:current-layer="g7320"
     inkscape:pagecheckerboard="0"
     width="165.83px" /><g
     id="g10"
     inkscape:groupmode="layer"
     inkscape:label="A"
     transform="matrix(1.25,0,0,-1.25,-140.85397,471.15775)"><g
       id="g7320"
       transform="matrix(1.4659627,0,0,1.4659627,-83.414388,-136.49267)"><g
         id="g711"
         transform="translate(30.541651,69.985226)"
         inkscape:export-filename="C:\Users\dev\Desktop\Projects\davidlefrancq.fr\reactjs\public\image\pierre-mendes-france-veynes.png"
         inkscape:export-xdpi="248.00999"
         inkscape:export-ydpi="248.00999"><g
           style="fill:#ffb600;fill-opacity:1;stroke:#ffdbaa;stroke-opacity:1"
           transform="matrix(0.50874241,0,0,0.50874241,165.54502,264.00938)"
           id="g1610"><path
             inkscape:connector-curvature="0"
             id="path1612"
             style="fill:#ffb600;fill-opacity:1;fill-rule:nonzero;stroke:#ffdbaa;stroke-width:0.723;stroke-linecap:butt;stroke-linejoin:miter;stroke-miterlimit:4;stroke-dasharray:none;stroke-opacity:1"
             d="m 0,0 c 0,7.698 6.261,13.961 13.959,13.961 7.699,0 13.962,-6.263 13.962,-13.961 0,-7.696 -6.263,-13.959 -13.962,-13.959 C 6.261,-13.959 0,-7.696 0,0 m -3.775,0 c 0,-9.778 7.956,-17.735 17.734,-17.735 9.782,0 17.738,7.957 17.738,17.735 0,9.781 -7.956,17.737 -17.738,17.737 C 4.181,17.737 -3.775,9.781 -3.775,0" /></g><g
           style="fill:#ffb600;fill-opacity:1;stroke:none"
           transform="matrix(0.50874241,0,0,0.50874241,173.11724,277.1183)"
           id="g1614"><path
             inkscape:connector-curvature="0"
             id="path1616"
             style="fill:#ffb600;fill-opacity:1;fill-rule:nonzero;stroke:none"
             d="M 0,0 H 7.083 L 1.961,-5.397 h -4.024 z" /></g><g
           style="stroke:#ffdbaa;stroke-opacity:1"
           transform="matrix(0.50874241,0,0,0.50874241,173.11724,277.1183)"
           id="g1618"><path
             inkscape:connector-curvature="0"
             id="path1620"
             style="fill:none;stroke:#ffdbaa;stroke-width:0.723;stroke-linecap:butt;stroke-linejoin:miter;stroke-miterlimit:4;stroke-dasharray:none;stroke-opacity:1"
             d="M 0,0 H 7.083 L 1.961,-5.397 h -4.024 z" /></g><g
           style="fill:#ffb600;fill-opacity:1;stroke:none;stroke-opacity:1"
           transform="matrix(0.50874241,0,0,0.50874241,169.36435,268.89911)"
           id="g1622"><path
             inkscape:connector-curvature="0"
             id="path1624"
             style="fill:#ffb600;fill-opacity:1;fill-rule:nonzero;stroke:none;stroke-opacity:1"
             d="M 0,0 H 12.966 V -4.328 H 4.952 V -7.12 h 7.49 v -4.326 h -7.49 v -2.788 h 8.011 v -4.325 H 0 Z" /></g><g
           style="stroke:#ffdbaa;stroke-opacity:1"
           transform="matrix(0.50874241,0,0,0.50874241,169.36435,268.89911)"
           id="g1626"><path
             inkscape:connector-curvature="0"
             id="path1628"
             style="fill:none;stroke:#ffdbaa;stroke-width:0.723;stroke-linecap:butt;stroke-linejoin:miter;stroke-miterlimit:4;stroke-dasharray:none;stroke-opacity:1"
             d="M 0,0 H 12.966 V -4.328 H 4.952 V -7.12 h 7.49 v -4.326 h -7.49 v -2.788 h 8.011 v -4.325 H 0 Z" /></g><g
           style="fill:#0049aa;fill-opacity:1"
           transform="matrix(0.50874241,0,0,0.50874241,155.1474,268.71739)"
           id="g1630"><path
             inkscape:connector-curvature="0"
             id="path1632"
             style="fill:#0049aa;fill-opacity:1;fill-rule:nonzero;stroke:none"
             d="M 0,0 H 2.269 C 2.583,0 2.836,-0.202 2.836,-0.454 V -3.507 H 2.269 v 3.053 H 1.701 V -3.507 H 1.134 v 3.053 H 0.567 V -3.507 H 0 Z" /></g><g
           style="fill:#0049aa;fill-opacity:1"
           transform="matrix(0.50874241,0,0,0.50874241,157.70962,266.91455)"
           id="g1634"><path
             inkscape:connector-curvature="0"
             id="path1636"
             style="fill:#0049aa;fill-opacity:1;fill-rule:nonzero;stroke:none"
             d="M 0,0 C -0.154,0.006 -0.292,0.055 -0.4,0.134 -0.507,0.215 -0.567,0.33 -0.567,0.453 v 3.09 L 0,3.543 Z M 0,3.96 H -0.567 V 4.413 H 0 Z" /></g><g
           style="fill:#0049aa;fill-opacity:1"
           transform="matrix(0.50874241,0,0,0.50874241,158.5405,268.71739)"
           id="g1638"><path
             inkscape:connector-curvature="0"
             id="path1640"
             style="fill:#0049aa;fill-opacity:1;fill-rule:nonzero;stroke:none"
             d="M 0,0 H 1.133 C 1.448,0 1.701,-0.202 1.701,-0.454 V -3.507 H 1.133 v 3.053 H 0.567 V -3.507 H 0 Z" /></g><g
           style="fill:#0049aa;fill-opacity:1"
           transform="matrix(0.50874241,0,0,0.50874241,160.52536,266.91455)"
           id="g1642"><path
             inkscape:connector-curvature="0"
             id="path1644"
             style="fill:#0049aa;fill-opacity:1;fill-rule:nonzero;stroke:none"
             d="M 0,0 C -0.154,0.006 -0.292,0.055 -0.4,0.134 -0.507,0.215 -0.567,0.33 -0.567,0.453 v 3.09 L 0,3.543 Z M 0,3.96 H -0.567 V 4.413 H 0 Z" /></g><g
           style="fill:#0049aa;fill-opacity:1"
           transform="matrix(0.50874241,0,0,0.50874241,161.89769,268.48651)"
           id="g1646"><path
             inkscape:connector-curvature="0"
             id="path1648"
             style="fill:#0049aa;fill-opacity:1;fill-rule:nonzero;stroke:none"
             d="M 0,0 H -0.567 V -1.073 H 0 c 0.315,0 0.567,-0.203 0.567,-0.454 V -2.41 c 0,-0.374 -0.382,-0.68 -0.85,-0.68 -0.468,0 -0.85,0.306 -0.85,0.68 v 0.264 h 0.566 V -2.6 H 0 v 1.073 h -0.567 c -0.314,0 -0.566,0.203 -0.566,0.454 v 0.882 c 0,0.375 0.382,0.682 0.85,0.682 0.468,0 0.85,-0.307 0.85,-0.682 V -0.454 H 0 Z" /></g><g
           style="fill:#0049aa;fill-opacity:1"
           transform="matrix(0.50874241,0,0,0.50874241,163.55548,268.48651)"
           id="g1650"><path
             inkscape:connector-curvature="0"
             id="path1652"
             style="fill:#0049aa;fill-opacity:1;fill-rule:nonzero;stroke:none"
             d="m 0,0 h -0.567 v -3.09 c -0.154,0.005 -0.292,0.055 -0.399,0.134 -0.107,0.08 -0.168,0.197 -0.168,0.32 v 3.96 h 0.567 V 0.454 H 0 Z" /></g><path
           inkscape:connector-curvature="0"
           id="path1654"
           style="fill:#0049aa;fill-opacity:1;fill-rule:nonzero;stroke:none;stroke-width:0.508742"
           d="m 164.53023,267.94074 h 0.28846 v 0.54588 h -0.28846 z m -0.25335,1.35376 0.79567,-0.24318 v -0.21519 l -0.79567,0.24267 z m -0.0346,-0.90505 c 0,0.19027 0.19485,0.34645 0.43243,0.34645 0.23759,0 0.43294,-0.15618 0.43294,-0.34645 v -0.68019 h -0.57742 v -0.54537 h 0.28897 v 0.23097 h 0.28845 v -0.13431 c 0,-0.19027 -0.19535,-0.34594 -0.43294,-0.34594 -0.23758,0 -0.43243,0.15567 -0.43243,0.34594 z" /><g
           style="fill:#0049aa;fill-opacity:1"
           transform="matrix(0.50874241,0,0,0.50874241,165.93853,268.48651)"
           id="g1656"><path
             inkscape:connector-curvature="0"
             id="path1658"
             style="fill:#0049aa;fill-opacity:1;fill-rule:nonzero;stroke:none"
             d="M 0,0 C 0,0.251 0.253,0.454 0.567,0.454 H 1.133 V 0 H 0.567 V -3.053 H 0 Z" /></g><path
           inkscape:connector-curvature="0"
           id="path1660"
           style="fill:#0049aa;fill-opacity:1;fill-rule:nonzero;stroke:none;stroke-width:0.508742"
           d="m 167.56081,267.94074 h 0.28846 v 0.54588 h -0.28846 z m -0.28846,0.44871 c 0,0.19027 0.19485,0.34645 0.43243,0.34645 0.2381,0 0.43244,-0.15618 0.43244,-0.34645 v -0.68019 h -0.57641 v -0.54537 h 0.28846 v 0.23097 h 0.28795 v -0.13431 c 0,-0.19027 -0.19434,-0.34594 -0.43244,-0.34594 -0.23758,0 -0.43243,0.15567 -0.43243,0.34594 z" /><path
           inkscape:connector-curvature="0"
           id="path1662"
           style="fill:#0049aa;fill-opacity:1;fill-rule:nonzero;stroke:none;stroke-width:0.508742"
           d="m 155.38101,264.27169 h 0.28846 v 0.54588 h -0.28846 z m 0.54181,1.13806 -0.79517,-0.24267 v 0.21468 l 0.79517,0.24318 z m -0.82976,-0.68935 c 0,0.19027 0.19434,0.34696 0.43192,0.34696 0.23809,0 0.43294,-0.15669 0.43294,-0.34696 v -0.68019 h -0.57691 v -0.54588 h 0.28846 v 0.23148 h 0.28845 v -0.13431 c 0,-0.19027 -0.19485,-0.34594 -0.43294,-0.34594 -0.23758,0 -0.43192,0.15567 -0.43192,0.34594 z" /><path
           inkscape:connector-curvature="0"
           id="path1664"
           style="fill:#0049aa;fill-opacity:1;fill-rule:nonzero;stroke:none;stroke-width:0.508742"
           d="m 157.03086,263.49433 h 0.28846 v 1.32273 h -0.28846 z m 0.57691,-0.23046 h -0.57691 c -0.15975,0 -0.28846,0.10277 -0.28846,0.23046 v 1.32273 c 0,0.1282 0.12871,0.23148 0.28846,0.23148 h 0.28846 v 0.4421 h 0.28845 z" /><g
           style="fill:#0049aa;fill-opacity:1"
           transform="matrix(0.50874241,0,0,0.50874241,158.39185,265.04849)"
           id="g1666"><path
             inkscape:connector-curvature="0"
             id="path1668"
             style="fill:#0049aa;fill-opacity:1;fill-rule:nonzero;stroke:none"
             d="M 0,0 H 0.567 V -3.055 H 1.135 V 0 h 0.566 v -3.055 c 0,-0.251 -0.253,-0.453 -0.566,-0.453 H 0 Z" /></g><g
           style="fill:#0049aa;fill-opacity:1"
           transform="matrix(0.50874241,0,0,0.50874241,160.90707,263.59145)"
           id="g1670"><path
             inkscape:connector-curvature="0"
             id="path1672"
             style="fill:#0049aa;fill-opacity:1;fill-rule:nonzero;stroke:none"
             d="m 0,0 c 0,-0.374 -0.383,-0.68 -0.851,-0.68 -0.467,0 -0.85,0.306 -0.85,0.68 v 2.219 c 0,0.374 0.383,0.682 0.85,0.682 C -0.383,2.901 0,2.593 0,2.219 V 1.956 H -0.567 V 2.41 h -0.567 v -2.601 h 0.567 V 0.264 H 0 Z" /></g><path
           inkscape:connector-curvature="0"
           id="path1674"
           style="fill:#0049aa;fill-opacity:1;fill-rule:nonzero;stroke:none;stroke-width:0.508742"
           d="m 161.9794,263.49433 h 0.28845 v 0.85164 h -0.28845 z m 0.57742,-0.23046 h -0.57742 c -0.15975,0 -0.28846,0.10277 -0.28846,0.23046 v 0.85214 c 0,0.12719 0.12871,0.23097 0.28846,0.23097 h 0.28896 v 0.23962 h -0.51484 v 0.23148 h 0.51484 c 0.15975,0 0.28846,-0.10328 0.28846,-0.23148 z" /><g
           style="fill:#0049aa;fill-opacity:1"
           transform="matrix(0.50874241,0,0,0.50874241,163.91781,264.81727)"
           id="g1676"><path
             inkscape:connector-curvature="0"
             id="path1678"
             style="fill:#0049aa;fill-opacity:1;fill-rule:nonzero;stroke:none"
             d="m 0,0 h -0.567 v -3.09 c -0.153,0.005 -0.292,0.055 -0.399,0.134 -0.107,0.08 -0.167,0.197 -0.167,0.32 v 3.96 h 0.566 V 0.455 H 0 Z" /></g><g
           style="fill:#0049aa;fill-opacity:1"
           transform="matrix(0.50874241,0,0,0.50874241,164.84632,263.2453)"
           id="g1680"><path
             inkscape:connector-curvature="0"
             id="path1682"
             style="fill:#0049aa;fill-opacity:1;fill-rule:nonzero;stroke:none"
             d="M 0,0 C -0.154,0.006 -0.291,0.055 -0.399,0.134 -0.506,0.215 -0.567,0.33 -0.567,0.453 V 3.544 H 0 Z M 0,3.96 H -0.567 V 4.413 H 0 Z" /></g><path
           inkscape:connector-curvature="0"
           id="path1684"
           style="fill:#0049aa;fill-opacity:1;fill-rule:nonzero;stroke:none;stroke-width:0.508742"
           d="m 165.91859,263.49433 h 0.28846 v 1.32273 h -0.28846 z m -0.28846,1.22607 c 0,0.19027 0.19485,0.34696 0.43294,0.34696 0.23708,0 0.43294,-0.15669 0.43294,-0.34696 v -1.1289 c 0,-0.19027 -0.19586,-0.34594 -0.43294,-0.34594 -0.23809,0 -0.43294,0.15567 -0.43294,0.34594 z" /><g
           style="fill:#0049aa;fill-opacity:1"
           transform="matrix(0.50874241,0,0,0.50874241,167.28004,265.04849)"
           id="g1686"><path
             inkscape:connector-curvature="0"
             id="path1688"
             style="fill:#0049aa;fill-opacity:1;fill-rule:nonzero;stroke:none"
             d="M 0,0 H 1.133 C 1.448,0 1.701,-0.203 1.701,-0.455 V -3.508 H 1.133 v 3.053 H 0.567 V -3.508 H 0 Z" /></g><g
           style="fill:#0049aa;fill-opacity:1"
           transform="matrix(0.50874241,0,0,0.50874241,155.17069,261.45072)"
           id="g1690"><path
             inkscape:connector-curvature="0"
             id="path1692"
             style="fill:#0049aa;fill-opacity:1;fill-rule:nonzero;stroke:none"
             d="M 0,0 H 1.134 C 1.448,0 1.701,-0.202 1.701,-0.453 V -3.508 H 1.134 v 3.055 H 0.567 V -3.508 H 0 Z" /></g><path
           inkscape:connector-curvature="0"
           id="path1694"
           style="fill:#0049aa;fill-opacity:1;fill-rule:nonzero;stroke:none;stroke-width:0.508742"
           d="m 157.17076,259.89752 h 0.28846 v 0.85164 h -0.28846 z m 0.57794,-0.23148 h -0.57794 c -0.15923,0 -0.28794,0.10328 -0.28794,0.23148 v 0.85164 c 0,0.12769 0.12871,0.23046 0.28794,0.23046 h 0.28897 v 0.24063 h -0.51485 v 0.23046 h 0.51485 c 0.15974,0 0.28897,-0.10276 0.28897,-0.23046 z" /><g
           style="fill:#0049aa;fill-opacity:1"
           transform="matrix(0.50874241,0,0,0.50874241,159.1717,261.2202)"
           id="g1696"><path
             inkscape:connector-curvature="0"
             id="path1698"
             style="fill:#0049aa;fill-opacity:1;fill-rule:nonzero;stroke:none"
             d="m 0,0 h -0.567 v -3.091 c -0.153,0.006 -0.292,0.055 -0.399,0.135 -0.107,0.08 -0.167,0.197 -0.167,0.32 v 3.96 h 0.566 V 0.453 H 0 Z" /></g><g
           style="fill:#0049aa;fill-opacity:1"
           transform="matrix(0.50874241,0,0,0.50874241,160.1584,259.64753)"
           id="g1700"><path
             inkscape:connector-curvature="0"
             id="path1702"
             style="fill:#0049aa;fill-opacity:1;fill-rule:nonzero;stroke:none"
             d="M 0,0 C -0.153,0.007 -0.291,0.055 -0.398,0.136 -0.505,0.215 -0.567,0.332 -0.567,0.455 V 3.544 H 0 Z M 0,3.96 H -0.567 V 4.415 H 0 Z" /></g><path
           inkscape:connector-curvature="0"
           id="path1704"
           style="fill:#0049aa;fill-opacity:1;fill-rule:nonzero;stroke:none;stroke-width:0.508742"
           d="m 161.29361,259.89752 h 0.28846 v 1.32273 h -0.28846 z m -0.28845,1.22556 c 0,0.19078 0.19484,0.34646 0.43294,0.34646 0.23758,0 0.43192,-0.15568 0.43192,-0.34646 v -1.12941 c 0,-0.18976 -0.19434,-0.34645 -0.43192,-0.34645 -0.2381,0 -0.43294,0.15669 -0.43294,0.34645 z" /><g
           style="fill:#0049aa;fill-opacity:1"
           transform="matrix(0.50874241,0,0,0.50874241,162.71707,261.45072)"
           id="g1706"><path
             inkscape:connector-curvature="0"
             id="path1708"
             style="fill:#0049aa;fill-opacity:1;fill-rule:nonzero;stroke:none"
             d="M 0,0 H 1.134 C 1.448,0 1.701,-0.202 1.701,-0.453 V -3.508 H 1.134 v 3.055 H 0.567 V -3.508 H 0 Z" /></g><path
           inkscape:connector-curvature="0"
           id="path1710"
           style="fill:#0049aa;fill-opacity:1;fill-rule:nonzero;stroke:none;stroke-width:0.508742"
           d="m 164.71796,259.89752 h 0.28845 v 0.85164 h -0.28845 z m 0.5764,-0.23148 h -0.5764 c -0.16026,0 -0.28897,0.10328 -0.28897,0.23148 v 0.85164 c 0,0.12769 0.12871,0.23046 0.28897,0.23046 h 0.28795 v 0.24063 h -0.51434 v 0.23046 h 0.51434 c 0.15974,0 0.28845,-0.10276 0.28845,-0.23046 z" /><g
           style="fill:#0049aa;fill-opacity:1"
           transform="matrix(0.50874241,0,0,0.50874241,166.14106,261.9125)"
           id="g1712"><path
             inkscape:connector-curvature="0"
             id="path1714"
             style="fill:#0049aa;fill-opacity:1;fill-rule:nonzero;stroke:none"
             d="m 0,0 c 0.154,-0.006 0.291,-0.055 0.399,-0.136 0.107,-0.079 0.168,-0.196 0.168,-0.319 v -3.96 H 0 Z" /></g><path
           inkscape:connector-curvature="0"
           id="path1716"
           style="fill:#0049aa;fill-opacity:1;fill-rule:nonzero;stroke:none;stroke-width:0.508742"
           d="m 167.56081,260.67335 h 0.28846 v 0.54639 h -0.28846 z m -0.28846,0.44973 c 0,0.19078 0.19485,0.34646 0.43243,0.34646 0.2381,0 0.43244,-0.15568 0.43244,-0.34646 v -0.67968 h -0.57641 v -0.54588 h 0.28846 v 0.23046 h 0.28795 v -0.13431 c 0,-0.18976 -0.19434,-0.34645 -0.43244,-0.34645 -0.23758,0 -0.43243,0.15669 -0.43243,0.34645 z" /></g><g
         id="g822"
         transform="translate(0,7.1537621)"
         inkscape:export-filename="C:\Users\dev\Desktop\Projects\davidlefrancq.fr\reactjs\public\image\pierre-mendes-france-veynes.png"
         inkscape:export-xdpi="248.00999"
         inkscape:export-ydpi="248.00999"><path
           inkscape:connector-curvature="0"
           id="path1720"
           style="fill:#ffffff;fill-opacity:1;fill-rule:nonzero;stroke:none;stroke-width:0.523086"
           d="m 180.19777,335.86155 v -10.47218 l -30.95988,-0.002 -0.008,10.47375 z" /><path
           inkscape:connector-curvature="0"
           id="path1724"
           style="fill:#254aa5;fill-opacity:1;fill-rule:nonzero;stroke:none;stroke-width:0.523086"
           d="m 158.4669,329.38329 c -0.28194,-0.08 -0.56912,-0.0942 -0.827,-0.23382 0.6141,0.0246 1.22873,-0.0738 1.82034,-0.26259 0.21185,-0.0696 0.39911,-0.16372 0.59004,-0.27933 0.0942,-0.0743 0.14176,-0.14698 0.23591,-0.19249 0.12031,-0.0711 0.28352,-0.0711 0.40278,-0.0262 h 0.11665 c 0.35465,0.0957 0.73598,0.19093 0.97084,0.44933 l 0.0455,-0.0209 c -0.0685,-0.18988 -0.0685,-0.40225 -0.21028,-0.56912 l 0.0204,-0.0931 h 0.0502 l -0.0502,-0.0225 0.0978,-0.0465 c -0.11822,-0.0262 -0.23853,-0.0518 -0.30914,-0.14647 l 0.0706,-0.0225 c -0.0439,-0.045 -0.11665,-0.0235 -0.14175,-0.0711 l 0.0486,-0.022 -0.0486,-0.0256 v -0.0696 c -0.068,0 -0.0915,-0.0476 -0.14281,-0.0696 0.0962,-0.0727 0.16791,0 0.26155,0 -0.26155,-0.0968 -0.4713,-0.23696 -0.73599,-0.30862 l -0.0434,-0.068 c 0.0722,-0.0507 0.11665,0.0235 0.18883,0.0235 -0.33111,-0.19145 -0.66118,-0.35779 -1.01845,-0.57069 l -0.0471,-0.0931 h -0.0936 c -0.0465,-0.0277 -0.0241,-0.0942 -0.069,-0.14176 0.11508,-0.0722 0.25788,0.091 0.32954,0 0.0235,0 -0.0471,-0.0262 -0.0947,-0.0262 l -0.0492,-0.046 h -0.0706 c -0.046,-0.0466 -0.0926,-0.068 -0.0926,-0.13967 -0.0471,0 -0.0952,0 -0.11769,-0.0471 0.52047,0.068 1.06343,0.0204 1.55827,0.28194 0.37871,0.18988 0.73389,0.45195 1.04146,0.78254 l 0.022,-0.0497 c -0.0685,-0.23539 -0.2108,-0.40382 -0.39964,-0.54296 -0.14437,-0.0711 -0.23486,-0.18988 -0.35569,-0.23905 -0.0711,-0.046 -0.13914,-0.0926 -0.21395,-0.14176 -0.8725,-0.30286 -1.91292,-0.16634 -2.6693,-0.75429 l -0.0481,0.0251 c -0.0476,-0.0513 -0.11926,-0.0738 -0.14175,-0.1224 l 0.0941,-0.023 c 0.14333,0.0942 0.28404,0.16791 0.44881,0.21499 -0.18936,-0.0947 -0.37191,-0.28508 -0.5665,-0.28508 H 157.144 c 0.23277,0.14176 0.47182,0.30967 0.73022,0.44985 -0.0701,0.045 -0.14018,0.045 -0.21498,0.045 -0.11456,-0.022 -0.25736,0.0502 -0.37663,0 -0.35256,-0.16216 -0.82752,-0.11717 -1.01583,-0.49484 h -7.03027 l -0.007,10.47323 h 14.05637 c -0.28247,-0.14228 -0.54035,-0.23435 -0.7522,-0.4938 -0.18883,-0.24114 -0.37924,-0.47182 -0.44881,-0.75586 -0.3081,-0.18935 -0.4985,-0.47653 -0.66379,-0.75899 -0.21395,-0.40016 -0.51943,-0.75586 -0.4734,-1.20624 0.0497,-0.37767 0.14228,-0.7318 0.2129,-1.13562 0.0256,-0.14123 0.0465,-0.26102 0.0978,-0.40016 0.045,-0.14019 0,-0.3081 0.0696,-0.42736 0.0471,-0.0696 0.022,-0.1632 0.11978,-0.21133 v -0.0936 c 0.0209,-0.0235 0.0209,-0.0476 0.0696,-0.0476 v -0.0962 c 0.18622,-0.238 0.42423,-0.4441 0.54401,-0.7093 0.0466,-0.14176 -0.23905,-0.0701 -0.35779,-0.0225 -0.23486,0.11874 -0.37557,0.30601 -0.56702,0.47392 l -0.0235,-0.0492 c 0.0941,-0.16425 0.45142,-0.37819 0.26206,-0.49327 -0.0931,-0.0507 -0.21446,0.0685 -0.30705,-0.0267 -0.0256,-0.046 0,-0.0931 0,-0.14071 -0.14175,0.0947 -0.28351,0.0476 -0.42684,0.0947 -0.0941,0.022 -0.11821,0.21342 -0.23434,0.21342 -0.30966,0.0691 -0.59422,0.14071 -0.90127,0.16373 -0.42213,0.0518 -0.82648,0.11978 -1.25123,0.0518 -0.37976,-0.0272 -0.6617,-0.31176 -0.8997,-0.59527 v -0.0743 c 0.16581,-0.0199 0.238,0.12188 0.37976,0.16843 0.23434,0.0492 0.44933,0.1449 0.68576,0.18936 0.35413,0.0706 0.68524,0.1653 1.01322,0.1428 0.0722,0 0.16739,0.0225 0.23905,0 -0.42632,0.0225 -0.80346,-0.11874 -1.20519,-0.238" /><path
           inkscape:connector-curvature="0"
           id="path1728"
           style="fill:#ffffff;fill-opacity:1;fill-rule:nonzero;stroke:none;stroke-width:0.523086"
           d="m 157.14418,328.27518 c -0.0732,-0.0214 -0.14542,-0.0722 -0.12031,-0.11822 0.0701,-0.0973 0.2129,0.0235 0.33059,0.0235 -0.14228,-0.0476 -0.30757,-0.0235 -0.42527,-0.14437 0.0947,-0.0711 0.18884,-0.022 0.28299,-0.022 0,-0.0492 0.0497,-0.0492 0.0706,-0.0732 -0.1177,-0.0455 -0.21185,-0.13862 -0.23591,-0.21185 -0.0481,-0.11717 -0.16635,-0.16477 -0.23696,-0.25998 v -0.068 c -0.23487,-0.21551 -0.49484,-0.35674 -0.68629,-0.61567 l 0.0267,-0.0487 c -0.0507,-0.0701 -0.14333,-0.0962 -0.16582,-0.16424 l 0.0225,-0.0476 c 0.28194,0.0894 0.49693,0.30444 0.75691,0.40069 0.18674,0.0471 0.33006,0.16372 0.49797,0.21185 0.11508,0.0241 0.25841,0.0738 0.3782,0.0957 l 0.0188,-0.0476 h 0.19354 c -0.0262,-0.0481 -0.1177,-0.0241 -0.0968,-0.0481 0.0706,-0.0732 0.21289,-0.0481 0.30809,0 0.0722,0.0481 0.14281,0.0481 0.23592,0.0481 l 0.0246,0.0691 c 0.0717,-0.0215 0.1177,-0.0215 0.18779,-0.0215 0.57121,0.11874 1.1126,0.23591 1.63098,0.49589 -0.61515,0.47391 -1.39402,0.63816 -2.12582,0.85211 0.0685,0 0.14071,-0.0727 0.21185,0 -0.11717,0.0915 -0.2605,0.0492 -0.37662,0.11507 0.022,0 0.0711,-0.0235 0.0936,0.0241 -0.1904,0.0989 -0.37819,0.0989 -0.56912,0.14175 0.11927,0.0246 0.19093,0.12084 0.19093,0.23748 l -0.0717,0.0246 c -0.28404,-0.14123 -0.47235,-0.40382 -0.589,-0.71192 0.16373,-0.0921 0.35465,-0.0204 0.5189,-0.045 -0.0717,-0.0696 -0.18935,-0.0696 -0.28194,-0.0921" /><path
           inkscape:connector-curvature="0"
           id="path1732"
           style="fill:#ffffff;fill-opacity:1;fill-rule:nonzero;stroke:none;stroke-width:0.523086"
           d="m 156.17317,329.19796 c -0.24323,-0.25997 -0.49484,-0.50164 -0.80608,-0.66432 -0.21132,-0.42422 -0.4488,-0.80503 -0.7569,-1.2031 l 0.0262,-0.0497 c 0.56651,0.63607 1.0875,1.17956 1.81877,1.62994 0.0487,0.0214 -0.0701,-0.068 0.0256,-0.0487 0.30601,0.0701 0.39964,0.38133 0.54297,0.61672 0.18831,0.30862 0.52047,0.42579 0.759,0.68472 l -0.0267,-0.0722 0.0701,-0.0204 c 0.0983,0.0696 0.21394,0.0476 0.28561,0.13914 -0.18727,0.0722 -0.42736,0.0952 -0.61568,0.0256 -0.49745,-0.23382 -0.92115,-0.61305 -1.32288,-1.0378" /><path
           inkscape:connector-curvature="0"
           id="path1736"
           style="fill:#ffffff;fill-opacity:1;fill-rule:nonzero;stroke:none;stroke-width:0.523086"
           d="m 156.52688,328.74695 c 0.0225,0.0429 0.0481,0.0465 0.0717,0.0942 l -0.0235,0.0455 c -0.0936,-0.0246 -0.16738,-0.11926 -0.1904,-0.21394 l 0.0497,-0.0204 c 0.0471,0.0204 0.0691,0.0439 0.0926,0.0947" /><path
           inkscape:connector-curvature="0"
           id="path1740"
           style="fill:#ffffff;fill-opacity:1;fill-rule:nonzero;stroke:none;stroke-width:0.523086"
           d="m 158.41967,326.94963 c -0.0957,-0.0481 -0.26154,-0.0481 -0.28404,-0.16425 -0.023,-0.0486 0.0706,-0.0241 0.11822,-0.0241 0.16582,0.068 0.35622,0 0.49484,0.14019 -0.0476,0.0481 -0.11874,0.0241 -0.1632,0.0978 -0.0481,0.0199 -0.11874,-0.0277 -0.16582,-0.0497" /><path
           inkscape:connector-curvature="0"
           id="path1744"
           style="fill:#254aa5;fill-opacity:1;fill-rule:nonzero;stroke:none;stroke-width:0.523086"
           d="m 160.97703,325.6946 c 0.14385,0.0309 0.28351,0.11613 0.42475,0.16425 v -0.0481 c 0.35412,0.14384 0.61567,0.45037 0.9677,0.56702 0.0246,0 0.0711,-0.045 0.11875,-0.0225 0.21394,0.18988 0.45037,0.40487 0.75638,0.35308 l 0.0241,-0.045 0.0476,0.0246 c -0.0962,-0.0711 -0.18831,-0.1428 -0.28404,-0.21394 l 0.0241,-0.0455 c 0.11821,0.0455 0.18831,0.14123 0.30757,0.18831 l -0.0476,-0.0973 c -0.44776,-0.33059 -1.1351,-1.13196 -1.1351,-1.13196 h -3.21593 c 0.47339,0.0706 0.94679,0.23434 1.4207,0.28299 0.18779,0 0.37767,-0.0235 0.59109,0.0241" /><path
           inkscape:connector-curvature="0"
           id="path1748"
           style="fill:#ef2c30;fill-opacity:1;fill-rule:nonzero;stroke:none;stroke-width:0.523086"
           d="m 170.31218,326.87724 c 0.0565,0.17053 0.11822,0.35465 0.0241,0.52413 -0.14175,0.21028 0.14019,0.28351 0.23591,0.42213 0.0701,0.1177 -0.0481,0.19041 -0.0717,0.30915 -0.0241,0.0476 -0.11822,0.0241 -0.16425,0.0957 0.16425,0.0691 0.42422,0.21185 0.30601,0.42422 -0.0701,0.11508 -0.18622,0.30392 -0.046,0.42423 0.16424,0.0952 0.42422,0.0701 0.49536,0.23748 0.11717,0.28456 -0.14333,0.52047 -0.28508,0.75638 -0.0691,0.13914 -0.16425,0.23434 -0.25841,0.37976 -0.0921,0.1632 -0.21185,0.30705 -0.2584,0.49589 -0.0738,0.18726 0.0225,0.35622 0.0225,0.54348 0.0241,0.35204 -0.0717,0.70878 -0.16425,1.05925 -0.0706,0.16896 -0.0957,0.3625 -0.16739,0.5257 -0.0235,0.0931 -0.0481,0.18674 -0.11769,0.28142 -0.0241,0.0481 -0.0241,0.11927 0,0.16634 0.0941,0.0717 0.18936,0.14228 0.28508,0.23591 0.068,0.11979 0.0225,0.28404 -0.0957,0.35675 -0.16739,0.0696 -0.14333,-0.16791 -0.26102,-0.21447 h -0.0706 c -0.0225,0.0722 0.0256,0.0921 0.0706,0.14176 l -0.0225,0.0727 c -0.0941,0 -0.18935,0.0209 -0.21394,0.0696 -0.23539,0.33164 -0.56598,0.49432 -0.92115,0.63921 0.0936,-0.0246 0.18674,-0.0481 0.28508,-0.0481 0.16216,-0.0235 0.35047,-0.0235 0.49588,0.0481 0.11718,0.0455 0.14019,0.23487 0.18779,0.35413 0.046,0.0936 -0.023,0.23853 -0.0706,0.30496 -0.11718,0.19093 -0.46241,0.37819 -0.46241,0.37819 h 11.12708 l 0.001,-10.47375 h -13.26703 c 0.14176,0.47339 0.4033,0.92534 0.82752,1.22716 0.0936,0.0518 0.21394,0.0738 0.33216,0.0973 0.40121,0 0.80346,-0.11507 1.2031,-0.16267 0.0481,0 0.0973,-0.0246 0.14385,-0.0502 0.14228,-0.0215 0.30914,-0.0215 0.44776,0.0256 0.16739,0.0476 0.3557,0.14176 0.42736,0.35256" /><path
           inkscape:connector-curvature="0"
           id="path1752"
           style="fill:#918f90;fill-opacity:1;fill-rule:nonzero;stroke:none;stroke-width:0.523086"
           d="m 169.41467,331.53469 c -0.14385,0.0356 -0.26102,0 -0.40435,0 -0.18988,-0.045 -0.35308,-0.0696 -0.51785,-0.13914 0.14123,0.0942 0.28404,0.18674 0.44671,0.23486 0.11822,0.0251 0.23749,0.0947 0.35413,0.0947 0.14385,0.0272 0.28561,0.0706 0.40487,0.0272 0.11665,-0.0476 0.30601,-0.0476 0.33059,-0.12188 0.0486,-0.14071 -0.0717,-0.28455 -0.21394,-0.37662 -0.023,-0.0476 0.0701,-0.0737 0.0701,-0.12031 -0.0209,-0.0476 -0.0931,-0.069 -0.14018,-0.069 -0.0466,-0.0246 -0.0957,-0.0968 -0.14228,-0.1449 l 0.0465,-0.0701 c -0.0947,-0.11822 0.0492,-0.35152 -0.0947,-0.39912 -0.16372,-0.0492 -0.35151,-0.0492 -0.54401,0 0.0947,0.0241 0.2129,-0.0235 0.28299,0.068 v 0.0952 l -0.0445,0.0267 -0.046,-0.0267 c 0,0.0507 -0.0492,0.0962 -0.0722,0.0962 -0.14175,-0.0262 -0.26311,0.0476 -0.35412,0.13967 0.069,0.0267 0.14175,0.0507 0.21237,0.0267 0.0685,0 0.0439,0.1177 0.11612,0.16373 h 0.0717 c 0.1428,0.18936 0.42579,0.23277 0.47234,0.42527 0,0.0513 -0.14228,0.0513 -0.23434,0.0696" /><path
           inkscape:connector-curvature="0"
           id="path1756"
           style="fill:#231f20;fill-opacity:1;fill-rule:nonzero;stroke:none;stroke-width:0.523086"
           d="m 150.02184,319.96324 c -0.0617,0 -0.11665,-0.011 -0.1836,-0.0235 0,-0.18151 -0.003,-0.5121 -0.003,-0.76632 l 0.13234,-0.01 c 0.2537,0 0.42632,0.1564 0.42632,0.39964 0,0.23434 -0.15902,0.40016 -0.37244,0.40016 m 0.793,-1.92914 c -0.11508,0 -0.17942,0.0173 -0.24062,0.0575 -0.10619,0.0691 -0.21342,0.2537 -0.27253,0.3604 -0.10619,0.17995 -0.22493,0.3761 -0.3353,0.53983 l -0.046,-0.005 -0.0847,0.005 v -0.16373 c 0,-0.0847 0.003,-0.16791 0.003,-0.25003 0.003,-0.16791 0.007,-0.24167 0.0303,-0.30601 0.0314,-0.0774 0.0847,-0.11769 0.18831,-0.12763 v -0.0863 l -0.0711,0.005 c -0.0806,0.002 -0.19145,0 -0.3353,0 -0.14176,0 -0.25265,0.002 -0.3353,0 l -0.0737,-0.005 v 0.0863 c 0.0774,0.007 0.1156,0.0225 0.15117,0.0591 0.034,0.046 0.0581,0.0999 0.0612,0.16896 0.01,0.0931 0.0136,0.15012 0.0136,0.4556 v 0.51995 c 0,0.37558 -0.0136,0.4645 -0.034,0.5529 -0.0225,0.0821 -0.0827,0.11508 -0.19197,0.12868 v 0.0847 c 0.0628,-0.004 0.12501,-5.2e-4 0.18517,-5.2e-4 0.16111,0 0.21028,0 0.39964,0.007 0.16843,0.007 0.26415,0.009 0.34052,0.009 0.20715,0 0.33426,-0.0298 0.43992,-0.10252 0.11246,-0.0847 0.19459,-0.24376 0.19459,-0.4033 0,-0.25579 -0.16791,-0.46084 -0.45299,-0.56546 0.11978,-0.14855 0.21132,-0.2992 0.31908,-0.46345 0.0983,-0.15902 0.19668,-0.29764 0.27462,-0.37244 0.0424,-0.045 0.0701,-0.0622 0.1292,-0.0785 v -0.0863 c -0.0805,-0.0167 -0.16006,-0.0241 -0.25631,-0.0241" /><path
           inkscape:connector-curvature="0"
           id="path1760"
           style="fill:#231f20;fill-opacity:1;fill-rule:nonzero;stroke:none;stroke-width:0.523086"
           d="m 152.39607,318.09682 c -0.022,-0.0387 -0.0481,-0.0471 -0.18726,-0.0471 -0.0868,0 -0.16948,0.006 -0.25684,0.008 -0.12188,0.005 -0.24533,0.007 -0.36773,0.007 -0.12292,0 -0.24585,0 -0.36668,-0.007 v 0.0727 c 0.11508,0.0105 0.16634,0.0732 0.17523,0.18831 0.008,0.0753 0.008,0.15902 0.008,0.28979 v 0.71872 c 0,0.13705 -0.008,0.1993 -0.0283,0.25422 -0.0241,0.0659 -0.0685,0.0973 -0.15483,0.10514 v 0.0706 h 1.19106 c 0,-0.0743 -10e-4,-0.15013 -10e-4,-0.22284 0,-0.0643 -0.003,-0.12135 10e-4,-0.18046 h -0.0905 c -0.0178,0.19877 -0.10305,0.24951 -0.40539,0.24951 -0.0549,0 -0.13025,-0.003 -0.19197,-0.004 -0.004,-0.10357 -0.007,-0.13548 -0.007,-0.28404 v -0.29502 c 0.0413,-0.002 0.0685,-0.002 0.11612,-0.002 0.26364,0 0.34262,0.0371 0.36093,0.17576 h 0.0921 c -0.006,-0.0397 -0.006,-0.12502 -0.006,-0.2516 0,-0.12921 0.002,-0.20872 0.006,-0.24638 h -0.0921 c -0.008,0.14124 -0.0764,0.17837 -0.33844,0.17837 -0.0476,0 -0.0926,-0.003 -0.13861,-0.003 0,-0.15484 0.003,-0.32118 0.003,-0.48177 0,-0.10671 0.0178,-0.14123 0.079,-0.1564 0.0377,-0.01 0.0978,-0.0141 0.1768,-0.0141 0.27567,0 0.36878,0.0628 0.43102,0.2741 l 0.0968,-0.0194 c -0.034,-0.18203 -0.0764,-0.33059 -0.10409,-0.37819 m -0.56598,1.82766 -0.12135,0.0691 0.2516,0.37348 0.29188,-0.0523 z" /><path
           inkscape:connector-curvature="0"
           id="path1764"
           style="fill:#231f20;fill-opacity:1;fill-rule:nonzero;stroke:none;stroke-width:0.523086"
           d="m 153.45825,318.81763 -0.0701,0.004 -0.0575,0.12607 c 0.24009,0.0136 0.37191,0.13286 0.37191,0.32849 0,0.20191 -0.13914,0.34838 -0.3332,0.34838 l -0.0957,-0.011 c 0,-0.16006 -0.007,-0.31385 -0.007,-0.47182 v -0.44619 c 0,-0.33425 0.003,-0.39075 0.0303,-0.45927 0.0225,-0.0654 0.0664,-0.0957 0.15222,-0.10514 v -0.0722 l -0.0596,0.005 c -0.068,0.002 -0.15745,0.002 -0.2809,0.002 -0.1177,0 -0.2129,0 -0.27828,-0.002 l -0.0602,-0.005 v 0.0722 c 0.11508,0.01 0.1653,0.0727 0.17681,0.18831 0.008,0.0753 0.008,0.12031 0.008,0.3761 v 0.63293 c 0,0.13653 -0.008,0.19877 -0.0282,0.2537 -0.0246,0.0654 -0.069,0.0968 -0.1564,0.10462 v 0.0717 c 0.0293,-5.2e-4 0.0105,-5.2e-4 0.11613,-5.2e-4 0.0445,0 0.10461,0 0.18674,5.2e-4 0.13234,0.008 0.25997,0.0141 0.3897,0.0141 0.3625,0 0.57853,-0.17837 0.57853,-0.47287 0,-0.28194 -0.24794,-0.48176 -0.58324,-0.48176" /><path
           inkscape:connector-curvature="0"
           id="path1768"
           style="fill:#231f20;fill-opacity:1;fill-rule:nonzero;stroke:none;stroke-width:0.523086"
           d="m 155.77228,319.63093 c -0.0267,-0.0392 -0.0403,-0.0889 -0.046,-0.19145 -0.005,-0.11194 -0.006,-0.19302 -0.006,-0.35151 0,-0.057 0.002,-0.23225 0.002,-0.4101 0,-0.17785 -0.0272,-0.28718 -0.10043,-0.39336 -0.11665,-0.16791 -0.31176,-0.25632 -0.56598,-0.25632 -0.15954,0 -0.28351,0.0298 -0.3965,0.10619 -0.17942,0.11508 -0.24899,0.26573 -0.24899,0.53773 0,0.27305 0.006,0.39179 0.006,0.48386 0,0.12815 0.009,0.26102 -0.0141,0.39336 -0.0157,0.0894 -0.0649,0.13025 -0.16947,0.13705 v 0.0711 h 0.0565 c 0.0649,-0.005 0.15902,-0.005 0.28194,-0.005 0.12188,0 0.21656,0 0.28247,0.005 h 0.0596 v -0.0711 c -0.0779,-0.007 -0.11874,-0.0314 -0.14489,-0.0727 -0.0209,-0.0371 -0.0309,-0.0884 -0.033,-0.20191 -0.004,-0.15641 -0.008,-0.31752 -0.008,-0.4781 0,-0.4373 0.0105,-0.52361 0.0894,-0.61463 0.0612,-0.0696 0.16634,-0.11769 0.28665,-0.11769 0.17105,0 0.33634,0.0832 0.38813,0.25526 0.0345,0.10776 0.0392,0.18936 0.0392,0.47706 v 0.25003 c 0,0.28979 -0.009,0.3829 -0.0371,0.42422 -0.0277,0.045 -0.067,0.0717 -0.13338,0.0785 v 0.0711 c 0.10409,-0.005 0.13809,-0.005 0.26468,-0.005 0.13181,0 0.16791,0 0.26625,0.005 v -0.0711 c -0.0528,-0.007 -0.0905,-0.0235 -0.11822,-0.0555" /><path
           inkscape:connector-curvature="0"
           id="path1772"
           style="fill:#231f20;fill-opacity:1;fill-rule:nonzero;stroke:none;stroke-width:0.523086"
           d="m 156.79339,318.91378 c -0.0445,0 -0.0905,-0.004 -0.15954,-0.006 -5.2e-4,-0.0696 -5.2e-4,-0.0811 -5.2e-4,-0.19615 v -0.15275 c 0,-0.14437 0.004,-0.22231 0.0256,-0.27095 0.0178,-0.0633 0.079,-0.0931 0.18622,-0.0931 0.21865,0 0.33634,0.12083 0.33634,0.33529 0,0.23749 -0.15013,0.38395 -0.38813,0.38395 m -0.01,0.71349 c -0.0455,0 -0.0894,-0.006 -0.13757,-0.006 -0.002,-0.16791 -0.008,-0.44776 -0.012,-0.55865 0.0309,-0.004 0.0669,-0.006 0.11508,-0.006 0.24951,0 0.39545,0.10619 0.39545,0.29188 0,0.17367 -0.136,0.27933 -0.36093,0.27933 m 0.55604,-1.44843 c -0.11822,-0.09 -0.25474,-0.12344 -0.51419,-0.12344 -0.13705,0 -0.27933,0.01 -0.41638,0.01 -0.0565,0 -0.15902,0 -0.23068,-0.002 l -0.0303,-0.005 v 0.0722 c 0.11874,0.0105 0.16373,0.0706 0.17576,0.18831 0.007,0.0753 0.01,0.1224 0.01,0.3761 v 0.48229 c 0,0.23434 -0.003,0.33791 -0.0293,0.40434 -0.0251,0.0659 -0.0717,0.0973 -0.1564,0.10462 v 0.0722 c 0.11717,-0.006 0.1857,-0.006 0.35047,-0.006 0.14594,0 0.36721,0.009 0.51262,0.009 0.23748,0 0.44986,-0.11456 0.44986,-0.37715 0,-0.19982 -0.12136,-0.32902 -0.3625,-0.39179 0.26834,-0.0555 0.41167,-0.20871 0.41167,-0.45665 0,-0.15955 -0.0549,-0.27096 -0.17053,-0.3578" /><path
           inkscape:connector-curvature="0"
           id="path1776"
           style="fill:#231f20;fill-opacity:1;fill-rule:nonzero;stroke:none;stroke-width:0.523086"
           d="m 158.94725,318.0931 c -0.022,-0.0345 -0.0523,-0.0429 -0.18046,-0.0429 -0.0617,0 -0.12973,0.005 -0.19198,0.005 -0.15849,0.008 -0.30077,0.01 -0.47653,0.01 -0.12815,0 -0.21708,0 -0.29397,-0.007 v 0.0722 c 0.0596,0.004 0.0931,0.0162 0.12501,0.0502 0.0439,0.0534 0.0581,0.11717 0.0581,0.3081 v 0.35883 0.27567 c 0,0.34053 0,0.38813 -0.0277,0.45822 -0.0246,0.0659 -0.0717,0.0973 -0.15535,0.10462 v 0.0722 l 0.0596,-10e-4 c 0.0711,-0.005 0.16216,-0.005 0.29345,-0.005 0.12397,0 0.22074,0 0.28613,0.005 l 0.0638,10e-4 v -0.0722 c -0.1292,0 -0.18674,-0.0685 -0.20034,-0.19511 -0.006,-0.0424 -0.007,-0.0795 -0.007,-0.36773 v -0.42579 c 0,-0.35622 0.001,-0.39964 0.0345,-0.43783 0.0277,-0.0256 0.0821,-0.0392 0.19145,-0.0392 0.14019,0 0.21656,0.0147 0.28038,0.0497 0.0717,0.0429 0.12292,0.1156 0.15221,0.22545 l 0.0936,-0.0246 c -0.0272,-0.15012 -0.0732,-0.33111 -0.10462,-0.37819" /><path
           inkscape:connector-curvature="0"
           id="path1780"
           style="fill:#231f20;fill-opacity:1;fill-rule:nonzero;stroke:none;stroke-width:0.523086"
           d="m 159.83399,318.06361 c -0.0623,0.002 -0.15745,0.002 -0.27567,0.002 -0.12554,0 -0.21446,0 -0.28246,-0.002 l -0.0602,-0.005 v 0.0727 c 0.11874,0.01 0.16634,0.0706 0.17524,0.18831 0.008,0.0748 0.01,0.12188 0.01,0.3761 v 0.42788 c 0,0.0617 -0.002,0.136 -0.002,0.20453 0,0.13652 -0.007,0.19929 -0.0256,0.2537 -0.023,0.0659 -0.0717,0.0973 -0.15797,0.10514 v 0.0706 l 0.0602,-0.003 c 0.068,-0.002 0.15692,-0.002 0.28246,-0.002 0.11822,0 0.21342,0 0.27567,0.002 l 0.0612,0.003 v -0.0706 c -0.10932,-0.008 -0.16425,-0.0769 -0.17471,-0.19512 -0.0105,-0.0727 -0.0105,-0.14018 -0.0105,-0.36825 v -0.42788 c 0,-0.33425 0.005,-0.39075 0.0309,-0.45927 0.0204,-0.0659 0.0685,-0.0957 0.15431,-0.10514 v -0.0727 z" /><path
           inkscape:connector-curvature="0"
           id="path1784"
           style="fill:#231f20;fill-opacity:1;fill-rule:nonzero;stroke:none;stroke-width:0.523086"
           d="m 161.01281,319.61508 c -0.31228,0 -0.53302,-0.2605 -0.53302,-0.62456 0,-0.44149 0.26363,-0.78882 0.59684,-0.78882 0.31437,0 0.53564,0.26416 0.53564,0.63346 0,0.43782 -0.26416,0.77992 -0.59946,0.77992 m 1.20362,-2.01545 c -0.19825,0 -0.41114,0.0628 -0.61306,0.1768 -0.11403,0.0596 -0.27566,0.16948 -0.39231,0.26678 -0.0868,-0.0131 -0.11979,-0.0152 -0.20139,-0.0152 -0.51419,0 -0.85315,0.33791 -0.85315,0.84373 0,0.5414 0.3672,0.91593 0.91017,0.91593 0.52099,0 0.87146,-0.33844 0.87146,-0.8406 0,-0.35675 -0.18308,-0.67792 -0.47653,-0.82438 0.0931,-0.0439 0.18465,-0.0952 0.27566,-0.15118 0.25789,-0.15535 0.43626,-0.22283 0.60469,-0.22283 0.10462,0 0.19145,0.0225 0.29345,0.0737 l 0.0314,-0.0894 c -0.12345,-0.0884 -0.27671,-0.13339 -0.45038,-0.13339" /><path
           inkscape:connector-curvature="0"
           id="path1788"
           style="fill:#231f20;fill-opacity:1;fill-rule:nonzero;stroke:none;stroke-width:0.523086"
           d="m 163.70231,319.63093 c -0.0272,-0.0392 -0.0424,-0.0889 -0.0466,-0.19145 -0.005,-0.11194 -0.009,-0.19302 -0.009,-0.35151 0,-0.057 0.004,-0.23225 0.004,-0.4101 0,-0.17785 -0.0277,-0.28718 -0.102,-0.39336 -0.11822,-0.16791 -0.31072,-0.25632 -0.56598,-0.25632 -0.16268,0 -0.2809,0.0298 -0.3965,0.10619 -0.17628,0.11508 -0.2469,0.26573 -0.2469,0.53773 0,0.27305 0.005,0.39179 0.005,0.48386 0,0.12815 0.006,0.26102 -0.0157,0.39336 -0.0167,0.0894 -0.0622,0.13025 -0.17,0.13705 v 0.0711 h 0.0575 c 0.0654,-0.005 0.16425,-0.005 0.28246,-0.005 0.12502,0 0.21708,0 0.28508,0.005 h 0.0586 v -0.0711 c -0.0806,-0.007 -0.11822,-0.0314 -0.14333,-0.0727 -0.0246,-0.0371 -0.0314,-0.0884 -0.0335,-0.20191 -0.01,-0.15641 -0.0115,-0.31752 -0.0115,-0.4781 0,-0.4373 0.0136,-0.52361 0.091,-0.61463 0.0633,-0.0696 0.16163,-0.11769 0.28665,-0.11769 0.17105,0 0.3353,0.0832 0.39022,0.25526 0.0309,0.10776 0.0366,0.18936 0.0366,0.47706 v 0.25003 c 0,0.28979 -0.008,0.3829 -0.0366,0.42422 -0.0277,0.045 -0.0664,0.0717 -0.13391,0.0785 v 0.0711 c 0.10409,-0.005 0.14019,-0.005 0.2673,-0.005 0.12711,0 0.16372,0 0.26468,0.005 v -0.0711 c -0.0544,-0.007 -0.0905,-0.0235 -0.11822,-0.0555" /><path
           inkscape:connector-curvature="0"
           id="path1792"
           style="fill:#231f20;fill-opacity:1;fill-rule:nonzero;stroke:none;stroke-width:0.523086"
           d="m 165.25514,318.09682 c -0.0225,-0.0387 -0.0497,-0.0471 -0.19145,-0.0471 -0.0837,0 -0.16739,0.006 -0.25527,0.008 -0.11874,0.005 -0.24428,0.007 -0.36511,0.007 -0.12136,0 -0.2448,0 -0.36616,-0.007 v 0.0727 c 0.11246,0.0105 0.16582,0.0732 0.1768,0.18831 0.007,0.0753 0.007,0.15902 0.007,0.28979 v 0.71872 c 0,0.13705 -0.007,0.1993 -0.0298,0.25422 -0.0209,0.0659 -0.0701,0.0973 -0.15379,0.10514 v 0.0706 h 1.1895 v -0.22284 c 0,-0.0643 -0.002,-0.12135 0,-0.18046 h -0.0905 c -0.0167,0.19877 -0.10147,0.24951 -0.40696,0.24951 -0.0544,0 -0.12763,-0.003 -0.18726,-0.004 -0.004,-0.10357 -0.009,-0.13548 -0.009,-0.28404 v -0.29502 c 0.0377,-0.002 0.0685,-0.002 0.11664,-0.002 0.26416,0 0.34315,0.0371 0.36041,0.17576 h 0.0905 c -0.006,-0.0397 -0.006,-0.12502 -0.006,-0.2516 0,-0.12921 0.004,-0.20872 0.006,-0.24638 h -0.0905 c -0.011,0.14124 -0.0769,0.17837 -0.33948,0.17837 l -0.13757,-0.003 c 0,-0.15484 0.005,-0.32118 0.005,-0.48177 0,-0.10671 0.0152,-0.14123 0.0779,-0.1564 0.0366,-0.01 0.0947,-0.0141 0.17471,-0.0141 0.27514,0 0.36982,0.0628 0.42893,0.2741 l 0.10095,-0.0194 c -0.0371,-0.18203 -0.0806,-0.33059 -0.10566,-0.37819" /><path
           inkscape:connector-curvature="0"
           id="path1796"
           style="fill:#231f20;fill-opacity:1;fill-rule:nonzero;stroke:none;stroke-width:0.523086"
           d="m 167.61233,319.62098 c -0.003,0.22022 -0.13286,0.30548 -0.48124,0.30548 -0.0727,0 -0.13757,-0.002 -0.21603,-0.011 -0.008,-0.20924 -0.008,-0.35518 -0.008,-0.69414 0.0737,0 0.11246,-0.003 0.16372,-0.003 0.2877,0 0.37558,0.0455 0.39023,0.20871 h 0.11141 c 0,-0.0795 -0.007,-0.17053 -0.007,-0.25422 0,-0.11665 0.007,-0.23539 0.007,-0.35047 h -0.11141 c -0.0188,0.18936 -0.0926,0.2244 -0.41743,0.2244 -0.056,0 -0.0753,0 -0.13652,-0.002 v -0.3468 c 0,-0.0659 0,-0.14333 0.003,-0.22231 0.008,-0.16948 0.0204,-0.31909 0.22126,-0.33112 v -0.0863 l -0.0759,0.004 c -0.0758,0.003 -0.18883,0.003 -0.33268,0.003 -0.14803,0 -0.2605,0 -0.34157,-0.003 l -0.0748,-0.004 v 0.0863 c 0.13862,0.012 0.20244,0.091 0.21395,0.22807 0.0115,0.0931 0.0115,0.15012 0.0115,0.45717 v 0.76999 c 0,0.16215 -0.0115,0.23539 -0.035,0.30077 -0.0277,0.079 -0.0837,0.11508 -0.19041,0.1313 v 0.0826 h 1.42123 c -0.008,-0.0554 -0.008,-0.15797 -0.008,-0.28769 0,-0.12084 0,-0.1381 0.008,-0.2061 z" /><path
           inkscape:connector-curvature="0"
           id="path1800"
           style="fill:#231f20;fill-opacity:1;fill-rule:nonzero;stroke:none;stroke-width:0.523086"
           d="m 168.66268,319.63391 c -0.0544,0 -0.0973,-0.007 -0.15588,-0.0204 v -0.63503 l 0.10933,-0.007 c 0.20923,0 0.35046,0.12659 0.35046,0.33007 0,0.18727 -0.12868,0.33216 -0.30391,0.33216 m 0.65281,-1.59803 c -0.0936,0 -0.14489,0.0157 -0.19982,0.0528 -0.0853,0.0523 -0.17262,0.20558 -0.2244,0.29032 -0.0868,0.15797 -0.18465,0.31594 -0.27671,0.4488 l -0.0382,-0.002 -0.0696,0.002 v -0.13286 -0.20505 c 0.004,-0.14071 0.007,-0.1972 0.0272,-0.25213 0.0262,-0.0675 0.0701,-0.0973 0.15745,-0.10723 v -0.0722 l -0.0596,0.004 c -0.0664,0.002 -0.15797,0 -0.27671,0 -0.11613,0 -0.20924,0.002 -0.27515,0 l -0.0596,-0.004 v 0.0722 c 0.0628,0.004 0.091,0.0162 0.12083,0.0502 0.0277,0.0335 0.0476,0.0795 0.0544,0.13809 0.007,0.0753 0.01,0.1224 0.01,0.3761 v 0.42841 c 0,0.30653 -0.01,0.38708 -0.0309,0.45665 -0.0173,0.0675 -0.0711,0.0989 -0.15431,0.10671 v 0.0717 c 0.0487,-0.006 0.0989,-0.001 0.14856,-0.001 0.13338,0 0.17418,0 0.33216,0.008 0.13757,0.002 0.21655,0.006 0.27828,0.006 0.17209,0 0.27619,-0.0256 0.36511,-0.0889 0.0968,-0.068 0.15693,-0.20034 0.15693,-0.33216 0,-0.20766 -0.13444,-0.37924 -0.36878,-0.46764 0.0952,-0.12397 0.17262,-0.24271 0.26102,-0.38342 0.0827,-0.13025 0.16268,-0.24167 0.22807,-0.30496 0.0345,-0.0382 0.0554,-0.0539 0.10514,-0.0643 v -0.0722 c -0.0659,-0.0152 -0.13077,-0.0225 -0.21133,-0.0225" /><path
           inkscape:connector-curvature="0"
           id="path1804"
           style="fill:#231f20;fill-opacity:1;fill-rule:nonzero;stroke:none;stroke-width:0.523086"
           d="m 170.33065,319.30976 c -0.0675,-0.17157 -0.16006,-0.39964 -0.1972,-0.52309 h 0.37662 z m 0.82281,-1.24756 c -0.0622,0.002 -0.15378,0.002 -0.272,0.002 -0.11926,0 -0.2108,0 -0.27357,-0.002 l -0.0596,-0.004 v 0.0722 c 0.0816,0.004 0.12921,0.0481 0.12921,0.11874 0,0.0225 -0.007,0.0638 -0.035,0.13653 -0.0277,0.0973 -0.0487,0.15954 -0.079,0.24637 h -0.48908 l -0.0513,-0.14594 c -0.0392,-0.11665 -0.0581,-0.20191 -0.0581,-0.2448 0,-0.0732 0.0319,-0.10723 0.11613,-0.1109 v -0.0722 c -0.0989,0.004 -0.13391,0.005 -0.25527,0.005 -0.12135,0 -0.1564,-0.002 -0.25369,-0.005 v 0.0722 l 0.0785,0.034 c 0.0497,0.0439 0.0973,0.13338 0.17523,0.32902 l 0.24219,0.6141 c 0.0654,0.16791 0.1653,0.43468 0.23434,0.65072 h 0.17262 c 0.0214,-0.0795 0.0753,-0.20087 0.1109,-0.29764 l 0.36093,-0.91801 c 0.0596,-0.15693 0.10461,-0.24847 0.13704,-0.30706 0.0319,-0.0581 0.0696,-0.091 0.13234,-0.10514 v -0.0722 z" /><path
           inkscape:connector-curvature="0"
           id="path1808"
           style="fill:#231f20;fill-opacity:1;fill-rule:nonzero;stroke:none;stroke-width:0.523086"
           d="m 172.96699,319.6099 c -0.0267,-0.0455 -0.0324,-0.0879 -0.0371,-0.22179 -0.008,-0.22806 -0.011,-0.58742 -0.011,-0.75586 v -0.39074 c 0,-0.057 0.009,-0.14856 0.009,-0.18308 h -0.17471 c -0.16739,0.21342 -0.50896,0.63869 -0.50896,0.63869 -0.0418,0.0502 -0.35727,0.44253 -0.52047,0.63973 0,-0.0549 -0.003,-0.0241 -0.003,-0.18779 v -0.16582 c 0,-0.18935 0.003,-0.37766 0.012,-0.56964 0.005,-0.10671 0.0141,-0.16058 0.0377,-0.20975 0.0288,-0.0497 0.0643,-0.0711 0.13862,-0.0732 v -0.0722 c -0.0884,0.007 -0.17837,0.007 -0.26573,0.007 -0.0952,0 -0.18465,0 -0.27671,-0.007 v 0.0722 c 0.16948,0.004 0.17471,0.14124 0.17785,0.27724 0.004,0.1088 0.007,0.19773 0.007,0.35988 v 0.53616 c 0,0.21499 -0.01,0.26312 -0.0497,0.32013 -0.0251,0.0387 -0.0596,0.0549 -0.13496,0.0628 v 0.0717 c 0.0853,-0.006 0.11613,-0.006 0.22231,-0.006 0.10357,0 0.13496,0 0.2197,0.006 0.0288,-0.056 0.08,-0.10724 0.25526,-0.32118 0.24899,-0.3013 0.47392,-0.56179 0.68263,-0.82752 v 0.55918 c 0,0.25003 -0.005,0.31594 -0.0152,0.38551 -0.0173,0.0795 -0.068,0.1224 -0.16059,0.13234 v 0.0717 c 0.1041,-0.006 0.13914,-0.006 0.26939,-0.006 0.12868,0 0.16634,0 0.2673,0.006 v -0.0717 c -0.0669,-0.004 -0.10305,-0.0136 -0.14071,-0.0769" /><path
           inkscape:connector-curvature="0"
           id="path1812"
           style="fill:#231f20;fill-opacity:1;fill-rule:nonzero;stroke:none;stroke-width:0.523086"
           d="m 174.7457,318.11931 c -0.1653,-0.0638 -0.31124,-0.091 -0.5121,-0.091 l -0.0246,-0.0994 h 0.0476 c 0.0973,0 0.16268,-0.0696 0.16268,-0.15222 0,-0.1428 -0.11194,-0.23591 -0.28246,-0.23591 -0.0502,0 -0.0983,0.009 -0.15484,0.0293 l 0.0366,0.0994 0.0905,-0.0204 c 0.0727,0 0.12031,0.0356 0.12031,0.10304 0,0.0502 -0.023,0.0806 -0.0612,0.0806 l -0.0591,-0.0194 -0.0544,0.0162 0.0497,0.20453 c -0.22231,0.0214 -0.38761,0.0931 -0.52414,0.23486 -0.1564,0.16373 -0.23957,0.38081 -0.23957,0.63817 0,0.54976 0.35152,0.88035 0.93476,0.88035 0.17575,0 0.3468,-0.022 0.49431,-0.0737 -0.006,-0.0581 -0.006,-0.11351 -0.006,-0.17105 0,-0.046 0.004,-0.13705 0.006,-0.19459 h -0.0994 c -0.0418,0.17889 -0.18622,0.27933 -0.41795,0.27933 -0.35831,0 -0.57749,-0.23958 -0.57749,-0.63503 0,-0.46084 0.25893,-0.79457 0.61044,-0.79457 0.21552,0 0.35884,0.10671 0.419,0.31019 l 0.0957,-0.0183 c -0.0204,-0.0894 -0.046,-0.23381 -0.0544,-0.37034" /><path
           inkscape:connector-curvature="0"
           id="path1816"
           style="fill:#231f20;fill-opacity:1;fill-rule:nonzero;stroke:none;stroke-width:0.523086"
           d="m 175.68783,319.30976 c -0.0669,-0.17157 -0.15902,-0.39964 -0.19825,-0.52309 h 0.37767 z m 0.82386,-1.24756 c -0.0633,0.002 -0.15431,0.002 -0.272,0.002 -0.11927,0 -0.21185,0 -0.27567,-0.002 l -0.0575,-0.004 v 0.0722 c 0.0806,0.004 0.12816,0.0481 0.12816,0.11874 0,0.0225 -0.007,0.0638 -0.0335,0.13653 -0.0288,0.0973 -0.0507,0.15954 -0.0832,0.24637 h -0.487 l -0.0507,-0.14594 c -0.0382,-0.11665 -0.0586,-0.20191 -0.0586,-0.2448 0,-0.0732 0.034,-0.10723 0.11456,-0.1109 v -0.0722 c -0.0968,0.004 -0.13339,0.005 -0.25161,0.005 -0.12083,0 -0.15745,-0.002 -0.25317,-0.005 v 0.0722 l 0.0753,0.034 c 0.0502,0.0439 0.10096,0.13338 0.17785,0.32902 l 0.23801,0.6141 c 0.0669,0.16791 0.16529,0.43468 0.23695,0.65072 h 0.17314 c 0.0209,-0.0795 0.0774,-0.20087 0.11195,-0.29764 l 0.35726,-0.91801 c 0.0628,-0.15693 0.10671,-0.24847 0.13914,-0.30706 0.034,-0.0581 0.0706,-0.091 0.13234,-0.10514 v -0.0722 z" /><path
           inkscape:connector-curvature="0"
           id="path1820"
           style="fill:#231f20;fill-opacity:1;fill-rule:nonzero;stroke:none;stroke-width:0.523086"
           d="m 177.3411,318.06361 c -0.0581,0.002 -0.15431,0.002 -0.27357,0.002 -0.12554,0 -0.21552,0 -0.28456,-0.002 l -0.0575,-0.005 v 0.0727 c 0.11926,0.01 0.16582,0.0706 0.17419,0.18831 0.0105,0.0748 0.012,0.12188 0.012,0.3761 v 0.42788 c 0,0.0617 -0.002,0.136 -0.002,0.20453 0,0.13652 -0.007,0.19929 -0.0256,0.2537 -0.0256,0.0659 -0.0717,0.0973 -0.15902,0.10514 v 0.0706 l 0.0575,-0.003 c 0.069,-0.002 0.15902,-0.002 0.28456,-0.002 0.11926,0 0.21551,0 0.27357,0.002 l 0.0654,0.003 v -0.0706 c -0.10933,-0.008 -0.16582,-0.0769 -0.17524,-0.19512 -0.01,-0.0727 -0.01,-0.14018 -0.01,-0.36825 v -0.42788 c 0,-0.33425 0.003,-0.39075 0.0303,-0.45927 0.0209,-0.0659 0.0654,-0.0957 0.15484,-0.10514 v -0.0727 z" /><path
           inkscape:connector-curvature="0"
           id="path1824"
           style="fill:#231f20;fill-opacity:1;fill-rule:nonzero;stroke:none;stroke-width:0.523086"
           d="m 178.13666,318.02814 c -0.14803,0 -0.25422,0.0204 -0.42945,0.0879 -0.006,0.0942 -0.0256,0.2448 -0.0445,0.3672 l 0.0957,0.0146 c 0.0596,-0.20505 0.19616,-0.31385 0.39336,-0.31385 0.18308,0 0.30391,0.0931 0.30391,0.23748 0,0.1156 -0.0785,0.19354 -0.19563,0.26573 l -0.26625,0.17105 c -0.18465,0.11508 -0.29032,0.23591 -0.29032,0.46188 0,0.28718 0.21761,0.46764 0.55134,0.46764 0.16477,0 0.30129,-0.0303 0.41847,-0.0905 v -0.16111 -0.18779 h -0.0942 c -0.0377,0.18203 -0.15012,0.2856 -0.3285,0.2856 -0.16058,0 -0.27566,-0.0994 -0.27566,-0.24271 0,-0.11874 0.0879,-0.19929 0.22283,-0.29083 l 0.21708,-0.13967 c 0.20505,-0.13077 0.3217,-0.26259 0.3217,-0.4645 0,-0.2809 -0.24376,-0.46816 -0.59998,-0.46816" /><path
           inkscape:connector-curvature="0"
           id="path1828"
           style="fill:#231f20;fill-opacity:1;fill-rule:nonzero;stroke:none;stroke-width:0.523086"
           d="m 180.18454,318.09682 c -0.0209,-0.0387 -0.0481,-0.0471 -0.18883,-0.0471 -0.0868,0 -0.17001,0.006 -0.25789,0.008 -0.12135,0.005 -0.24375,0.007 -0.36511,0.007 -0.12292,0 -0.24428,0 -0.36302,-0.007 v 0.0727 c 0.10985,0.0105 0.16111,0.0732 0.17366,0.18831 0.007,0.0753 0.007,0.15902 0.007,0.28979 v 0.71872 c 0,0.13705 -0.007,0.1993 -0.0277,0.25422 -0.0256,0.0659 -0.0675,0.0973 -0.15274,0.10514 v 0.0706 h 1.19054 c 0,-0.0743 -0.004,-0.15013 -0.004,-0.22284 0,-0.0643 -0.005,-0.12135 0.004,-0.18046 h -0.0931 c -0.0188,0.19877 -0.10461,0.24951 -0.40643,0.24951 -0.0555,0 -0.13025,-0.003 -0.19093,-0.004 -0.005,-0.10357 -0.008,-0.13548 -0.008,-0.28404 v -0.29502 l 0.11456,-0.002 c 0.26573,0 0.34471,0.0371 0.36302,0.17576 h 0.09 c -0.004,-0.0397 -0.004,-0.12502 -0.004,-0.2516 0,-0.12921 0.003,-0.20872 0.004,-0.24638 h -0.09 c -0.007,0.14124 -0.0774,0.17837 -0.34001,0.17837 l -0.13757,-0.003 c 0,-0.15484 0.003,-0.32118 0.003,-0.48177 0,-0.10671 0.0183,-0.14123 0.0816,-0.1564 0.0371,-0.01 0.0952,-0.0141 0.17314,-0.0141 0.27567,0 0.37192,0.0628 0.42998,0.2741 l 0.0989,-0.0194 c -0.034,-0.18203 -0.0769,-0.33059 -0.10409,-0.37819" /><path
           inkscape:connector-curvature="0"
           id="path1832"
           style="fill:#231f20;fill-opacity:1;fill-rule:nonzero;stroke:none;stroke-width:0.523086"
           d="m 150.11563,322.41788 c -0.0241,-0.0277 -0.0607,-0.0403 -0.14908,-0.0403 -0.12136,0 -0.2401,0.009 -0.36093,0.0126 -0.10566,0 -0.18465,0.004 -0.23905,0.004 -0.0732,0 -0.25526,-0.004 -0.30914,-0.004 l -0.033,-0.004 0.009,0.0523 c 0.0748,0.009 0.12031,0.0314 0.15535,0.0764 0.0392,0.0497 0.0628,0.12136 0.0968,0.25789 0.0329,0.13704 0.0486,0.21655 0.10095,0.47182 l 0.0382,0.19982 c 0.0408,0.19615 0.0544,0.31123 0.0544,0.37348 0,0.10828 -0.0382,0.1564 -0.1449,0.16843 l 0.01,0.0523 0.034,-0.004 h 0.27358 0.27932 l 0.0387,0.004 -0.01,-0.0523 c -0.0748,-0.006 -0.11717,-0.0235 -0.1564,-0.0753 -0.0607,-0.0816 -0.0952,-0.18517 -0.18726,-0.66641 l -0.0324,-0.16687 c -0.0382,-0.20138 -0.0533,-0.26834 -0.0654,-0.36197 l -0.009,-0.0753 c 0,-0.0994 0.0481,-0.12867 0.20923,-0.12867 0.27881,0 0.38499,0.0586 0.47496,0.26102 l 0.067,-0.0267 c -0.0602,-0.16059 -0.11456,-0.28665 -0.14542,-0.3285" /><path
           inkscape:connector-curvature="0"
           id="path1836"
           style="fill:#231f20;fill-opacity:1;fill-rule:nonzero;stroke:none;stroke-width:0.523086"
           d="m 150.58264,322.35992 c -0.0497,0 -0.0837,0.0267 -0.0837,0.0717 0,0.0209 0.008,0.0617 0.0209,0.11508 0.0314,0.13391 0.0759,0.31176 0.102,0.40435 0.034,0.12658 0.0476,0.22022 0.0476,0.25631 l -0.0413,0.0434 c -0.0215,0 -0.0455,-0.006 -0.0952,-0.022 l -0.0178,-0.004 -0.008,0.0685 c 0.13705,0.0513 0.27253,0.0842 0.33687,0.0842 l 0.0544,-0.0429 c 0,-0.0282 -0.0136,-0.10723 -0.0591,-0.28613 l -0.0366,-0.14123 c -0.0628,-0.2401 -0.0774,-0.32693 -0.0774,-0.36825 l 0.057,-0.0534 c 0.0241,0 0.067,0.007 0.13652,0.0314 l 0.004,-0.068 c -0.12868,-0.0523 -0.27253,-0.0894 -0.34001,-0.0894 m 0.27096,1.26796 c -0.0769,0 -0.12868,0.0476 -0.12868,0.11717 0,0.0879 0.0643,0.15065 0.15483,0.15065 0.0748,0 0.11979,-0.0445 0.11979,-0.11822 0,-0.0863 -0.0623,-0.1496 -0.14594,-0.1496" /><path
           inkscape:connector-curvature="0"
           id="path1840"
           style="fill:#231f20;fill-opacity:1;fill-rule:nonzero;stroke:none;stroke-width:0.523086"
           d="m 151.9446,323.27108 c -0.0434,0 -0.0989,-0.0167 -0.16686,-0.0539 -0.0711,-0.0356 -0.12711,-0.0748 -0.15431,-0.11455 -0.0314,-0.0466 -0.057,-0.12031 -0.0942,-0.28195 -0.0371,-0.15902 -0.0586,-0.25579 -0.0586,-0.29136 0,-0.0418 0.0586,-0.0696 0.15693,-0.0696 0.102,0 0.18936,0.0476 0.25265,0.13601 0.0989,0.14541 0.17419,0.36773 0.17419,0.52988 0,0.0931 -0.0382,0.14542 -0.10985,0.14542 m 0.002,-0.79561 c -0.0957,-0.0874 -0.2108,-0.11822 -0.38604,-0.11822 -0.19563,0 -0.31071,0.0309 -0.31071,0.0816 0,0.0209 0.002,0.0471 0.0267,0.14699 l 0.12816,0.56441 c 0.0429,0.18098 0.0753,0.32431 0.12187,0.52674 0.0246,0.11875 0.034,0.18622 0.034,0.21865 l -0.0429,0.0455 -0.10775,-0.0246 -0.005,0.0717 0.0319,0.0126 c 0.13391,0.0382 0.24533,0.0659 0.29816,0.0659 l 0.0513,-0.0397 c 0,-0.0262 -0.012,-0.09 -0.0544,-0.27462 l -0.0753,-0.32641 c -0.0235,-0.10723 -0.0329,-0.14751 -0.0398,-0.18098 0.15744,0.09 0.29345,0.13338 0.41689,0.13338 0.15222,0 0.22598,-0.0764 0.22598,-0.23486 0,-0.22911 -0.13234,-0.51263 -0.31281,-0.66798" /><path
           inkscape:connector-curvature="0"
           id="path1844"
           style="fill:#231f20;fill-opacity:1;fill-rule:nonzero;stroke:none;stroke-width:0.523086"
           d="m 153.05657,323.27846 c -0.12031,0 -0.2469,-0.16216 -0.30757,-0.40435 h 0.0256 c 0.22859,0 0.4033,0.12293 0.4033,0.27986 0,0.0706 -0.0549,0.12449 -0.12136,0.12449 m -0.25684,-0.49275 -0.0732,0.002 -0.007,-0.12031 c 0,-0.12921 0.0424,-0.19407 0.13077,-0.19407 0.079,0 0.1789,0.0434 0.32222,0.13496 l 0.0288,-0.0842 c -0.1836,-0.1156 -0.32222,-0.16948 -0.44933,-0.16948 -0.15169,0 -0.23748,0.0952 -0.23748,0.25788 0,0.40749 0.27828,0.7658 0.59736,0.7658 0.15693,0 0.25109,-0.0727 0.25109,-0.19302 0,-0.2312 -0.24481,-0.39964 -0.56285,-0.39964" /><path
           inkscape:connector-curvature="0"
           id="path1848"
           style="fill:#231f20;fill-opacity:1;fill-rule:nonzero;stroke:none;stroke-width:0.523086"
           d="m 154.35498,323.05772 -0.0811,0.006 0.007,0.0994 c 0,0.0439 -0.0397,0.0779 -0.10252,0.0779 l -0.10619,-0.0601 c -0.0957,-0.10828 -0.13339,-0.27671 -0.18674,-0.55081 l -0.0455,-0.24219 c -0.0978,-0.003 -0.11979,-0.007 -0.21656,-0.0157 0.0246,0.0894 0.0434,0.16529 0.0628,0.25056 l 0.0544,0.22649 c 0.0361,0.15588 0.0534,0.25736 0.0534,0.31019 0,0.0596 -0.0162,0.0853 -0.0434,0.0853 l -0.0628,-0.009 -0.0643,-0.0178 -0.004,0.0706 c 0.12083,0.0513 0.25736,0.09 0.31908,0.09 l 0.0471,-0.0351 0.0146,-0.10461 c 0.11089,0.0894 0.20976,0.14123 0.28037,0.14123 0.0476,0 0.10723,-0.0214 0.16425,-0.0638 -0.0419,-0.0915 -0.0722,-0.17209 -0.09,-0.2584" /><path
           inkscape:connector-curvature="0"
           id="path1852"
           style="fill:#231f20;fill-opacity:1;fill-rule:nonzero;stroke:none;stroke-width:0.523086"
           d="m 155.19453,323.22751 -0.20662,0.005 -0.10043,-0.50948 c -0.0293,-0.13235 -0.0319,-0.16844 -0.0319,-0.18779 l 0.0502,-0.0528 c 0.0173,0 0.0549,0.008 0.11141,0.0251 l 0.0256,0.009 0.009,-0.0717 c -0.12868,-0.057 -0.26311,-0.0884 -0.3353,-0.0884 -0.0507,0 -0.0837,0.023 -0.0837,0.0706 0,0.0445 0.009,0.10148 0.0309,0.18047 0.0188,0.0894 0.0371,0.16058 0.0575,0.25735 l 0.0774,0.36721 -0.13286,-0.004 0.0167,0.079 c 0.17052,0.0319 0.22806,0.16058 0.27567,0.30705 l 0.11874,0.0262 -0.0617,-0.29136 h 0.20557 z" /><path
           inkscape:connector-curvature="0"
           id="path1856"
           style="fill:#231f20;fill-opacity:1;fill-rule:nonzero;stroke:none;stroke-width:0.523086"
           d="m 155.93731,323.27846 c -0.11979,0 -0.2448,-0.16216 -0.30757,-0.40435 h 0.0235 c 0.22912,0 0.4033,0.12293 0.4033,0.27986 0,0.0706 -0.0544,0.12449 -0.11926,0.12449 m -0.2584,-0.49275 -0.068,0.002 -0.0125,-0.12031 c 0,-0.12921 0.045,-0.19407 0.13391,-0.19407 0.0779,0 0.17733,0.0434 0.32431,0.13496 l 0.0256,-0.0842 c -0.18151,-0.1156 -0.32169,-0.16948 -0.44828,-0.16948 -0.15326,0 -0.23748,0.0952 -0.23748,0.25788 0,0.40749 0.27723,0.7658 0.59684,0.7658 0.15902,0 0.24847,-0.0727 0.24847,-0.19302 0,-0.2312 -0.24219,-0.39964 -0.56284,-0.39964 m 0.27775,0.74435 -0.0795,0.0675 0.30077,0.34158 0.22388,-0.0544 z" /><path
           inkscape:connector-curvature="0"
           id="path1860"
           style="fill:#231f20;fill-opacity:1;fill-rule:nonzero;stroke:none;stroke-width:0.523086"
           d="m 160.68646,323.67721 h -0.0701 l 0.004,0.0555 c 0,0.13861 -0.0874,0.1836 -0.33791,0.1836 -0.0806,0 -0.1585,0 -0.24219,-0.007 -0.0502,-0.20662 -0.0842,-0.38499 -0.12711,-0.60573 h 0.0905 c 0.15954,0 0.22598,0.002 0.28142,0.0136 0.0952,0.0178 0.14437,0.0717 0.17314,0.16948 h 0.0691 c -0.0345,-0.14542 -0.0774,-0.35309 -0.0978,-0.48333 h -0.0643 l 0.005,0.0418 c 0,0.1088 -0.0659,0.1428 -0.26834,0.1428 -0.1224,0 -0.16739,-10e-4 -0.21185,-10e-4 -0.0141,-0.0643 0,-0.009 -0.0555,-0.29345 -0.0298,-0.14019 -0.0382,-0.22859 -0.0382,-0.27096 0,-0.0868 0.0445,-0.11037 0.20923,-0.11037 0.31333,0 0.40958,0.0497 0.50583,0.26206 l 0.0633,-0.023 c -0.0549,-0.1653 -0.11613,-0.29293 -0.1496,-0.33739 -0.0246,-0.0272 -0.0554,-0.0366 -0.16007,-0.0366 -0.0868,0 -0.17785,0.004 -0.26363,0.007 -0.11456,0.002 -0.22964,0.006 -0.34576,0.006 -0.1177,0 -0.23068,-0.004 -0.34681,-0.004 l 0.0115,0.0523 c 0.0722,0.009 0.11665,0.0309 0.15169,0.0764 0.0408,0.0481 0.0659,0.12083 0.10253,0.25788 0.0303,0.13809 0.0419,0.19249 0.0962,0.4713 l 0.0403,0.19877 c 0.0408,0.19511 0.0539,0.31228 0.0539,0.37505 0,0.10828 -0.0387,0.15641 -0.14385,0.16844 l 0.0105,0.0523 h 1.12672 c -0.0288,-0.11247 -0.0523,-0.24638 -0.0717,-0.36198 m -0.46921,0.52989 -0.0795,0.0649 0.30287,0.34314 0.22702,-0.0581 z" /><path
           inkscape:connector-curvature="0"
           id="path1864"
           style="fill:#231f20;fill-opacity:1;fill-rule:nonzero;stroke:none;stroke-width:0.523086"
           d="m 161.47653,322.27963 c -0.0837,0.0324 -0.18413,0.0664 -0.29084,0.0973 -0.16895,-0.0418 -0.29031,-0.16895 -0.29031,-0.3128 0,-0.13443 0.1156,-0.22231 0.29345,-0.22231 0.21656,0 0.41429,0.14385 0.41429,0.30548 0,0.0596 -0.0377,0.0968 -0.12659,0.13234 m -0.0377,1.0038 c -0.13339,0 -0.24376,-0.14123 -0.24376,-0.31123 0,-0.11351 0.068,-0.19093 0.16686,-0.19093 0.12816,0 0.23644,0.13286 0.23644,0.30077 0,0.12554 -0.0617,0.20139 -0.15954,0.20139 m 0.47391,-0.0523 -0.16791,0.002 c 0.0293,-0.0513 0.0392,-0.0926 0.0392,-0.15065 0,-0.22911 -0.19197,-0.4012 -0.43834,-0.4012 -0.0492,0 -0.0827,0.003 -0.13443,0.0183 -0.0612,-0.0371 -0.0821,-0.0523 -0.0821,-0.0764 0,-0.0272 0.0272,-0.0424 0.13653,-0.0758 l 0.19563,-0.0596 c 0.19982,-0.0628 0.29921,-0.12084 0.29921,-0.26573 0,-0.26468 -0.26312,-0.47026 -0.59318,-0.47026 -0.27358,0 -0.44149,0.12973 -0.44149,0.33949 0,0.19511 0.12711,0.28612 0.33007,0.33791 -0.12606,0.045 -0.15274,0.0643 -0.15274,0.10723 0,0.0513 0.0722,0.12083 0.22074,0.20401 -0.0769,0.0565 -0.11299,0.12658 -0.11299,0.22335 0,0.23591 0.18831,0.41481 0.43626,0.41481 0.0654,0 0.11141,-0.008 0.16634,-0.0277 h 0.32745 z" /><path
           inkscape:connector-curvature="0"
           id="path1868"
           style="fill:#231f20;fill-opacity:1;fill-rule:nonzero;stroke:none;stroke-width:0.523086"
           d="m 162.72953,323.27328 c -0.0968,0 -0.19616,-0.0738 -0.28037,-0.21394 -0.0957,-0.1496 -0.16216,-0.35152 -0.16216,-0.48386 0,-0.0748 0.034,-0.1156 0.10095,-0.1156 0.0905,0 0.25161,0.0779 0.3149,0.14123 0.034,0.0351 0.0492,0.0842 0.0785,0.18152 0.0366,0.14751 0.0753,0.29031 0.0989,0.45613 -0.0575,0.0225 -0.10933,0.0345 -0.15065,0.0345 m 0.11508,-0.91802 c -0.0429,0 -0.0596,0.0293 -0.0821,0.15222 -0.18308,-0.10566 -0.31803,-0.15483 -0.44828,-0.15483 -0.14751,0 -0.23591,0.0785 -0.23591,0.21446 0,0.13234 0.0649,0.31752 0.16425,0.46817 0.13338,0.20975 0.29763,0.34262 0.55394,0.34262 0.10933,0 0.21029,-0.0194 0.31961,-0.0466 l -0.0131,-0.0413 c -0.0894,-0.28665 -0.15221,-0.59841 -0.15221,-0.70407 0,-0.0685 0.0141,-0.10358 0.0434,-0.10358 0.0194,0 0.0727,0.0131 0.13391,0.0351 l 0.007,-0.0759 c -0.12815,-0.0471 -0.24794,-0.0863 -0.29031,-0.0863" /><path
           inkscape:connector-curvature="0"
           id="path1872"
           style="fill:#231f20;fill-opacity:1;fill-rule:nonzero;stroke:none;stroke-width:0.523086"
           d="m 163.94304,323.81525 c -0.0811,-0.33007 -0.1632,-0.69623 -0.24376,-1.04774 -0.0241,-0.11351 -0.0377,-0.18674 -0.0377,-0.22807 l 0.0544,-0.0502 c 0.0262,0 0.0696,0.009 0.13862,0.0277 l 0.005,-0.067 c -0.12763,-0.0518 -0.2809,-0.0952 -0.34785,-0.0952 l -0.0743,0.0769 c 0,0.0345 0.008,0.079 0.0439,0.23591 0.079,0.32745 0.16163,0.67583 0.22754,0.98549 0.0298,0.14856 0.0455,0.21761 0.0455,0.24167 l -0.0413,0.0439 -0.10985,-0.0256 -0.005,0.0753 c 0.12606,0.0455 0.26573,0.0785 0.33634,0.0785 l 0.0513,-0.0397 c 0,-0.0267 -0.011,-0.0858 -0.0434,-0.21185" /><path
           inkscape:connector-curvature="0"
           id="path1876"
           style="fill:#231f20;fill-opacity:1;fill-rule:nonzero;stroke:none;stroke-width:0.523086"
           d="m 164.28931,322.35992 c -0.0513,0 -0.0827,0.0267 -0.0827,0.0717 0,0.0209 0.007,0.0617 0.0204,0.11508 0.033,0.13391 0.0748,0.31176 0.10096,0.40435 0.0329,0.12658 0.0476,0.22022 0.0476,0.25631 l -0.0408,0.0434 c -0.023,0 -0.0439,-0.006 -0.0968,-0.022 l -0.0178,-0.004 -0.006,0.0685 c 0.13495,0.0513 0.26938,0.0842 0.33634,0.0842 l 0.0518,-0.0429 c 0,-0.0282 -0.0105,-0.10723 -0.057,-0.28613 l -0.035,-0.14123 c -0.0643,-0.2401 -0.0769,-0.32693 -0.0769,-0.36825 l 0.056,-0.0534 c 0.023,0 0.0649,0.007 0.136,0.0314 l 0.004,-0.068 c -0.13286,-0.0523 -0.27462,-0.0894 -0.33948,-0.0894 m 0.26782,1.26796 c -0.0753,0 -0.12397,0.0476 -0.12397,0.11717 0,0.0879 0.0628,0.15065 0.15222,0.15065 0.0753,0 0.12188,-0.0445 0.12188,-0.11822 0,-0.0863 -0.0643,-0.1496 -0.15013,-0.1496" /><path
           inkscape:connector-curvature="0"
           id="path1880"
           style="fill:#231f20;fill-opacity:1;fill-rule:nonzero;stroke:none;stroke-width:0.523086"
           d="m 165.53568,323.22751 -0.20505,0.005 -0.10619,-0.50948 c -0.0288,-0.13235 -0.0288,-0.16844 -0.0288,-0.18779 l 0.0476,-0.0528 c 0.0188,0 0.056,0.008 0.11613,0.0251 l 0.0225,0.009 0.008,-0.0717 c -0.12763,-0.057 -0.26102,-0.0884 -0.33478,-0.0884 -0.0492,0 -0.0816,0.023 -0.0816,0.0706 0,0.0445 0.006,0.10148 0.0288,0.18047 0.0204,0.0894 0.0366,0.16058 0.0565,0.25735 l 0.0779,0.36721 -0.12921,-0.004 0.0152,0.079 c 0.16896,0.0319 0.22545,0.16058 0.27672,0.30705 l 0.1156,0.0262 -0.0617,-0.29136 h 0.20662 z" /><path
           inkscape:connector-curvature="0"
           id="path1884"
           style="fill:#231f20;fill-opacity:1;fill-rule:nonzero;stroke:none;stroke-width:0.523086"
           d="m 166.27736,323.27846 c -0.12293,0 -0.24742,-0.16216 -0.3081,-0.40435 h 0.0267 c 0.22597,0 0.40068,0.12293 0.40068,0.27986 0,0.0706 -0.0534,0.12449 -0.11926,0.12449 m -0.25684,-0.49275 -0.0748,0.002 -0.007,-0.12031 c 0,-0.12921 0.0434,-0.19407 0.13182,-0.19407 0.0805,0 0.17889,0.0434 0.32327,0.13496 l 0.0293,-0.0842 c -0.18465,-0.1156 -0.32484,-0.16948 -0.44776,-0.16948 -0.15588,0 -0.23958,0.0952 -0.23958,0.25788 0,0.40749 0.27672,0.7658 0.5958,0.7658 0.15692,0 0.25213,-0.0727 0.25213,-0.19302 0,-0.2312 -0.2469,-0.39964 -0.56285,-0.39964 m 0.27619,0.74435 -0.08,0.0675 0.30339,0.34158 0.22231,-0.0544 z" /><path
           inkscape:connector-curvature="0"
           id="path1888"
           style="fill:#231f20;fill-opacity:1;fill-rule:nonzero;stroke:none;stroke-width:0.523086"
           d="m 170.99444,323.68071 h -0.0743 l 0.006,0.0581 c 0,0.0492 -0.0173,0.0874 -0.045,0.11822 -0.0487,0.0445 -0.13653,0.0617 -0.32588,0.0617 -0.0492,0 -0.12136,-0.002 -0.18151,-0.006 -0.0439,-0.20139 -0.0816,-0.39859 -0.12764,-0.60939 0.046,0 0.0926,-10e-4 0.14019,-10e-4 0.27619,0 0.32955,0.0235 0.38028,0.18413 h 0.0675 c -0.0392,-0.16059 -0.0706,-0.31909 -0.0921,-0.48334 h -0.0727 l 0.007,0.0403 -0.0476,0.10671 c -0.0424,0.0351 -0.091,0.0377 -0.23957,0.0377 -0.0795,0 -0.10044,-5.2e-4 -0.16896,-5.2e-4 l -0.0314,-0.17419 c -0.0439,-0.23016 -0.0622,-0.34471 -0.0622,-0.41376 0,-0.10148 0.0439,-0.14751 0.14489,-0.16059 l -0.008,-0.0523 -0.0434,0.004 h -0.22074 -0.31542 l -0.0429,-0.004 0.01,0.0523 c 0.0764,0.008 0.12084,0.0309 0.15431,0.0779 0.0419,0.0481 0.0659,0.11979 0.0989,0.25632 0.0361,0.14123 0.0492,0.21551 0.0999,0.47182 l 0.0403,0.19982 c 0.0377,0.19616 0.0549,0.31123 0.0549,0.37348 0,0.10828 -0.0403,0.1564 -0.14594,0.16844 l 0.007,0.0523 h 1.10319 c -0.0246,-0.11246 -0.0497,-0.23748 -0.0691,-0.35831" /><path
           inkscape:connector-curvature="0"
           id="path1892"
           style="fill:#231f20;fill-opacity:1;fill-rule:nonzero;stroke:none;stroke-width:0.523086"
           d="m 171.83839,323.05772 -0.0837,0.006 0.009,0.0994 c 0,0.0439 -0.0392,0.0779 -0.10253,0.0779 l -0.10566,-0.0601 c -0.0941,-0.10828 -0.13077,-0.27671 -0.18517,-0.55081 l -0.0492,-0.24219 c -0.0936,-0.003 -0.11822,-0.007 -0.21394,-0.0157 0.0251,0.0894 0.0429,0.16529 0.0617,0.25056 l 0.0544,0.22649 c 0.0366,0.15588 0.0534,0.25736 0.0534,0.31019 0,0.0596 -0.0136,0.0853 -0.0413,0.0853 l -0.0649,-0.009 -0.0617,-0.0178 -0.008,0.0706 c 0.12292,0.0513 0.26154,0.09 0.32431,0.09 l 0.0434,-0.0351 0.0173,-0.10461 c 0.11089,0.0894 0.20766,0.14123 0.27828,0.14123 0.0481,0 0.10566,-0.0214 0.16425,-0.0638 -0.0371,-0.0915 -0.0696,-0.17209 -0.0894,-0.2584" /><path
           inkscape:connector-curvature="0"
           id="path1896"
           style="fill:#231f20;fill-opacity:1;fill-rule:nonzero;stroke:none;stroke-width:0.523086"
           d="m 172.70227,323.27328 c -0.10043,0 -0.19773,-0.0738 -0.2856,-0.21394 -0.0921,-0.1496 -0.15902,-0.35152 -0.15902,-0.48386 0,-0.0748 0.0377,-0.1156 0.0994,-0.1156 0.09,0 0.25475,0.0779 0.31595,0.14123 0.0345,0.0351 0.0523,0.0842 0.0806,0.18152 0.0398,0.14751 0.0758,0.29031 0.0973,0.45613 -0.056,0.0225 -0.10567,0.0345 -0.14856,0.0345 m 0.11456,-0.91802 c -0.0445,0 -0.0591,0.0293 -0.0821,0.15222 -0.18256,-0.10566 -0.3196,-0.15483 -0.44776,-0.15483 -0.15013,0 -0.23696,0.0785 -0.23696,0.21446 0,0.13234 0.0643,0.31752 0.16373,0.46817 0.13338,0.20975 0.2992,0.34262 0.5529,0.34262 0.11037,0 0.21185,-0.0194 0.31908,-0.0466 l -0.0105,-0.0413 c -0.0905,-0.28665 -0.15431,-0.59841 -0.15431,-0.70407 0,-0.0685 0.0141,-0.10358 0.046,-0.10358 0.0178,0 0.0685,0.0131 0.13234,0.0351 l 0.006,-0.0759 c -0.12711,-0.0471 -0.24585,-0.0863 -0.28874,-0.0863" /><path
           inkscape:connector-curvature="0"
           id="path1900"
           style="fill:#231f20;fill-opacity:1;fill-rule:nonzero;stroke:none;stroke-width:0.523086"
           d="m 173.99811,323.22751 -0.20348,0.005 -0.10409,-0.50948 c -0.0298,-0.13235 -0.0314,-0.16844 -0.0314,-0.18779 l 0.0492,-0.0528 c 0.0178,0 0.0539,0.008 0.11351,0.0251 l 0.0267,0.009 0.008,-0.0717 c -0.13024,-0.057 -0.26259,-0.0884 -0.33477,-0.0884 -0.0534,0 -0.0858,0.023 -0.0858,0.0706 0,0.0445 0.0105,0.10148 0.0303,0.18047 0.0209,0.0894 0.0398,0.16058 0.0581,0.25735 l 0.0774,0.36721 -0.13077,-0.004 0.0162,0.079 c 0.17104,0.0319 0.22963,0.16058 0.27305,0.30705 l 0.12135,0.0262 -0.0633,-0.29136 h 0.20609 z" /><path
           inkscape:connector-curvature="0"
           id="path1904"
           style="fill:#231f20;fill-opacity:1;fill-rule:nonzero;stroke:none;stroke-width:0.523086"
           d="m 174.74057,323.27846 c -0.11822,0 -0.24323,-0.16216 -0.30757,-0.40435 h 0.0251 c 0.22912,0 0.40435,0.12293 0.40435,0.27986 0,0.0706 -0.0539,0.12449 -0.12188,0.12449 m -0.25684,-0.49275 -0.0696,0.002 -0.011,-0.12031 c 0,-0.12921 0.0465,-0.19407 0.13391,-0.19407 0.0779,0 0.17837,0.0434 0.32536,0.13496 l 0.0235,-0.0842 c -0.18308,-0.1156 -0.32013,-0.16948 -0.44724,-0.16948 -0.15483,0 -0.23905,0.0952 -0.23905,0.25788 0,0.40749 0.27567,0.7658 0.59789,0.7658 0.15797,0 0.24689,-0.0727 0.24689,-0.19302 0,-0.2312 -0.24271,-0.39964 -0.56075,-0.39964" /><path
           inkscape:connector-curvature="0"
           id="path1908"
           style="fill:#231f20;fill-opacity:1;fill-rule:nonzero;stroke:none;stroke-width:0.523086"
           d="m 176.03929,323.05772 -0.0821,0.006 0.007,0.0994 c 0,0.0439 -0.0377,0.0779 -0.0999,0.0779 l -0.10671,-0.0601 c -0.0968,-0.10828 -0.13391,-0.27671 -0.18465,-0.55081 l -0.0502,-0.24219 c -0.0936,-0.003 -0.11769,-0.007 -0.21551,-0.0157 0.0256,0.0894 0.0424,0.16529 0.0617,0.25056 l 0.0586,0.22649 c 0.034,0.15588 0.0518,0.25736 0.0518,0.31019 0,0.0596 -0.0162,0.0853 -0.045,0.0853 l -0.0622,-0.009 -0.0617,-0.0178 -0.008,0.0706 c 0.12554,0.0513 0.2605,0.09 0.3217,0.09 l 0.0465,-0.0351 0.0157,-0.10461 c 0.11246,0.0894 0.20923,0.14123 0.27828,0.14123 0.0502,0 0.10671,-0.0214 0.16425,-0.0638 -0.0361,-0.0915 -0.0685,-0.17209 -0.0894,-0.2584" /><path
           inkscape:connector-curvature="0"
           id="path1912"
           style="fill:#231f20;fill-opacity:1;fill-rule:nonzero;stroke:none;stroke-width:0.523086"
           d="m 177.02798,322.3572 c -0.0502,0 -0.079,0.0293 -0.079,0.0743 0,0.0303 0.012,0.0858 0.0408,0.20871 l 0.0241,0.10619 c 0.0722,0.30286 0.0947,0.41323 0.0947,0.45299 l -0.0539,0.0555 c -0.0424,0 -0.11299,-0.022 -0.18779,-0.0675 -0.0779,-0.045 -0.13862,-0.0989 -0.16686,-0.1449 -0.0246,-0.0356 -0.0398,-0.0968 -0.0706,-0.22754 -0.0408,-0.18517 -0.0633,-0.30705 -0.0832,-0.42422 -0.0978,-0.006 -0.1224,-0.009 -0.21918,-0.0183 0.0513,0.18203 0.0853,0.33582 0.12345,0.50792 0.0387,0.16477 0.0518,0.24951 0.0518,0.28979 0,0.0591 -0.0162,0.0847 -0.0539,0.0847 -0.0225,0 -0.0633,-0.01 -0.12136,-0.0272 l -0.005,0.0675 c 0.11927,0.0487 0.24952,0.0832 0.30758,0.0832 0.0544,0 0.0722,-0.0335 0.0722,-0.14908 v -0.0183 c 0.18936,0.10671 0.38133,0.16738 0.51681,0.16738 0.0821,0 0.11299,-0.0199 0.11299,-0.0701 0,-0.0534 -0.0136,-0.13129 -0.0675,-0.33582 -0.0277,-0.11194 -0.0565,-0.23277 -0.0669,-0.28822 -0.0115,-0.0717 -0.0199,-0.11926 -0.0199,-0.14594 l 0.0539,-0.0523 c 0.0241,0 0.0696,0.008 0.1292,0.0314 l 0.007,-0.0722 c -0.13077,-0.0481 -0.2809,-0.0879 -0.33896,-0.0879" /><path
           inkscape:connector-curvature="0"
           id="path1916"
           style="fill:#231f20;fill-opacity:1;fill-rule:nonzero;stroke:none;stroke-width:0.523086"
           d="m 177.80293,322.35992 c -0.0476,0 -0.0816,0.0267 -0.0816,0.0717 0,0.0209 0.007,0.0617 0.0194,0.11508 0.0319,0.13391 0.0759,0.31176 0.10253,0.40435 0.0319,0.12658 0.0486,0.22022 0.0486,0.25631 l -0.0397,0.0434 c -0.023,0 -0.0492,-0.006 -0.0968,-0.022 l -0.0214,-0.004 -0.005,0.0685 c 0.13443,0.0513 0.27148,0.0842 0.33792,0.0842 l 0.0513,-0.0429 c 0,-0.0282 -0.012,-0.10723 -0.0581,-0.28613 l -0.0366,-0.14123 c -0.0612,-0.2401 -0.0779,-0.32693 -0.0779,-0.36825 l 0.0601,-0.0534 c 0.022,0 0.068,0.007 0.13653,0.0314 l 0.007,-0.068 c -0.13496,-0.0523 -0.27724,-0.0894 -0.34576,-0.0894 m 0.27044,1.26796 c -0.0779,0 -0.12816,0.0476 -0.12816,0.11717 0,0.0879 0.0659,0.15065 0.15326,0.15065 0.0753,0 0.12241,-0.0445 0.12241,-0.11822 0,-0.0863 -0.0612,-0.1496 -0.14751,-0.1496" /><path
           inkscape:connector-curvature="0"
           id="path1920"
           style="fill:#231f20;fill-opacity:1;fill-rule:nonzero;stroke:none;stroke-width:0.523086"
           d="m 179.05112,323.22751 -0.20767,0.005 -0.10043,-0.50948 c -0.0298,-0.13235 -0.0309,-0.16844 -0.0309,-0.18779 l 0.0492,-0.0528 c 0.0178,0 0.0534,0.008 0.11508,0.0251 l 0.0225,0.009 0.009,-0.0717 c -0.12867,-0.057 -0.26363,-0.0884 -0.33582,-0.0884 -0.0502,0 -0.0858,0.023 -0.0858,0.0706 0,0.0445 0.0105,0.10148 0.034,0.18047 0.0199,0.0894 0.0361,0.16058 0.057,0.25735 l 0.0753,0.36721 -0.13077,-0.004 0.0183,0.079 c 0.16843,0.0319 0.22597,0.16058 0.27305,0.30705 l 0.11874,0.0262 -0.0617,-0.29136 h 0.20819 z" /><path
           inkscape:connector-curvature="0"
           id="path1924"
           style="fill:#231f20;fill-opacity:1;fill-rule:nonzero;stroke:none;stroke-width:0.523086"
           d="m 179.78987,323.27846 c -0.11665,0 -0.24323,-0.16216 -0.30548,-0.40435 h 0.0251 c 0.22806,0 0.40486,0.12293 0.40486,0.27986 0,0.0706 -0.0544,0.12449 -0.12449,0.12449 m -0.25579,-0.49275 -0.0696,0.002 -0.008,-0.12031 c 0,-0.12921 0.0424,-0.19407 0.12973,-0.19407 0.08,0 0.17942,0.0434 0.32641,0.13496 l 0.0251,-0.0842 c -0.18308,-0.1156 -0.32117,-0.16948 -0.44462,-0.16948 -0.15693,0 -0.2401,0.0952 -0.2401,0.25788 0,0.40749 0.27515,0.7658 0.5958,0.7658 0.15536,0 0.24846,-0.0727 0.24846,-0.19302 0,-0.2312 -0.24585,-0.39964 -0.56336,-0.39964 m 0.27828,0.74435 -0.0779,0.0675 0.30392,0.34158 0.21865,-0.0544 z" /><path
           inkscape:connector-curvature="0"
           id="path1928"
           style="fill:#231f20;fill-opacity:1;fill-rule:nonzero;stroke:none;stroke-width:0.523086"
           d="m 168.18312,322.8218 c 0.16739,0 0.30182,0.13234 0.30182,0.29868 0,0.16268 -0.13443,0.29921 -0.30182,0.29921 -0.1632,0 -0.30234,-0.13653 -0.30234,-0.29921 0,-0.16634 0.13914,-0.29868 0.30234,-0.29868" /><path
           inkscape:connector-curvature="0"
           id="path1932"
           style="fill:#231f20;fill-opacity:1;fill-rule:nonzero;stroke:none;stroke-width:0.523086"
           d="m 157.85222,322.8218 c 0.16425,0 0.30077,0.13234 0.30077,0.29868 0,0.16268 -0.13652,0.29921 -0.30077,0.29921 -0.16791,0 -0.3013,-0.13653 -0.3013,-0.29921 0,-0.16634 0.13339,-0.29868 0.3013,-0.29868" /><path
           inkscape:connector-curvature="0"
           id="path1934"
           style="fill:#231f20;fill-opacity:1;fill-rule:nonzero;stroke:none;stroke-width:0.523086"
           d="M 180.16586,321.13307 H 149.1861 v 0.26207 h 30.97976 z" /></g></g></g></svg>
